<svg width="139" height="118" viewBox="0 0 139 118" fill="none" xmlns="http://www.w3.org/2000/svg">
<path d="M112.775 11.2939L127.506 4.05099C127.637 3.98691 127.799 4.01571 127.917 4.12355C128.035 4.2315 128.083 4.39684 128.04 4.54092L123.161 20.8064C123.117 20.9531 122.986 21.0473 122.834 21.0429C122.801 21.0419 122.768 21.0364 122.737 21.0269C122.623 20.9921 122.524 20.9039 122.475 20.7864L120.675 15.0107C120.442 14.2637 119.83 13.6785 119.097 13.5017L112.877 12.0018C112.729 11.9532 112.617 11.8179 112.594 11.6612C112.572 11.5045 112.643 11.3586 112.775 11.2939Z" fill="#F9B816"/>
<g filter="url(#filter0_d_0_1)">
<rect x="16.4" y="17.9998" width="98" height="75" rx="5" fill="white"/>
</g>
<path d="M63.4567 44.998C63.8688 44.9448 64.2078 45.0239 64.4694 45.1913C64.7317 45.3592 64.9527 45.6393 65.0875 46.0468C65.2732 46.6078 65.2896 47.3737 65.1754 48.2568C65.0625 49.1298 64.8283 50.0688 64.5582 50.9491L64.4918 51.1679L64.6139 51.3622C65.0696 52.0852 65.5938 52.8332 66.1715 53.579C66.6546 54.2031 67.1495 54.7906 67.6403 55.3261L67.7926 55.4911L68.0163 55.4882C69.8321 55.4636 71.4617 55.6426 72.4606 56.0985L72.652 56.1943C73.0707 56.4197 73.3336 56.701 73.4684 56.9911C73.6009 57.2767 73.6268 57.6069 73.5114 57.9726C73.3625 58.4435 73.1171 58.7593 72.8288 58.9433C72.5423 59.1261 72.1709 59.2062 71.7155 59.1308H71.7145C71.1255 59.0343 70.4424 58.6882 69.7233 58.1698C69.0122 57.6573 68.3055 57.0057 67.6725 56.3525L67.5163 56.1913L67.2926 56.2011C66.3607 56.2408 65.3678 56.3311 64.3551 56.4735H64.3532C63.6176 56.5802 62.9062 56.7034 62.236 56.8476L62.0192 56.8944L61.9079 57.0868C61.6702 57.4998 61.43 57.8896 61.1891 58.2548C60.2749 59.6371 59.4392 60.5062 58.7213 60.914L58.7106 60.9208C58.4181 61.0968 58.0854 61.1936 57.7448 61.203C57.351 61.2012 56.9798 61.0345 56.6618 60.6601L56.6608 60.6591L56.5553 60.5263C56.3279 60.2171 56.2236 59.9049 56.2155 59.6112C56.2075 59.3187 56.2939 59.0109 56.5006 58.7079L56.5973 58.578C57.0747 57.9813 58.0532 57.3845 59.609 56.8534H59.61C60.1441 56.6704 60.7353 56.5001 61.3551 56.3456L61.569 56.2919L61.6745 56.0976C62.0693 55.3632 62.4545 54.5644 62.8151 53.7275C63.1449 52.9616 63.4351 52.2037 63.6784 51.4735L63.7506 51.2577L63.6354 51.0614C63.198 50.3183 62.7868 49.5268 62.4899 48.7597C62.1908 47.9869 62.02 47.2705 62.0309 46.6698C62.0398 46.1615 62.1895 45.7767 62.4196 45.5097C62.6481 45.2447 62.9896 45.0572 63.4557 44.998H63.4567ZM59.6149 57.5741C59.0686 57.7688 58.5828 57.9769 58.1793 58.1972C57.7442 58.4348 57.3687 58.7038 57.1247 59.0087C57.0573 59.0927 56.8881 59.2953 56.8893 59.5771C56.8906 59.8548 57.0537 60.0688 57.1754 60.2109L57.1813 60.2187C57.2118 60.2531 57.3729 60.4623 57.6618 60.5068C57.9208 60.5465 58.1691 60.4419 58.3825 60.3232L58.3903 60.3183C59.0074 59.9598 59.6843 59.2153 60.3444 58.2763L60.0338 58.0585L59.9391 57.4892H59.6754L59.6149 57.5741ZM69.8102 56.2343L69.7887 56.7675L69.4967 57.1191C69.9306 57.4804 70.3475 57.7838 70.7321 58.0107C71.1101 58.2336 71.4871 58.3999 71.8375 58.4569C71.9225 58.4708 72.1968 58.5302 72.4508 58.3847C72.7049 58.2389 72.8123 57.9704 72.8766 57.7675L72.8756 57.7665C72.8937 57.7117 72.9791 57.4733 72.8297 57.2148C72.7204 57.0258 72.5245 56.901 72.3463 56.8046L72.3415 56.8027L72.11 56.6943C71.5734 56.4696 70.8435 56.3289 70.0182 56.2519L69.9977 56.2343H69.8102ZM63.7868 53.165C63.6516 53.5079 63.5339 53.7939 63.445 53.9989L63.444 54.0019C63.2681 54.4147 63.0833 54.8156 62.8932 55.2128L62.4762 56.0839L63.4274 55.9218C63.7008 55.8754 63.9782 55.8325 64.2604 55.7919L64.2614 55.7929C64.7946 55.7181 65.3558 55.6522 65.9264 55.6025L66.8766 55.5194L66.2672 54.7851C66.0042 54.4682 65.7898 54.1982 65.6403 54.0058L65.6374 54.0019L65.2555 53.5019C65.1498 53.3594 65.0361 53.1996 64.9137 53.0273L65.0807 52.5946H63.3903L63.7868 53.165ZM63.6315 45.6728L63.5407 45.6835C63.4396 45.6963 63.1658 45.7244 62.9625 45.9364C62.7563 46.1515 62.72 46.4434 62.7155 46.6855V46.6864C62.704 47.3561 62.9776 48.2277 63.4079 49.164L64.0436 50.5478L64.3512 49.0566C64.4703 48.4807 64.5453 47.9497 64.5661 47.4872C64.5864 47.0326 64.5561 46.6074 64.4401 46.2646C64.397 46.1357 64.311 45.8931 64.0788 45.7587C63.9559 45.6877 63.8349 45.671 63.7467 45.6689C63.7068 45.6679 63.667 45.6697 63.6315 45.6728Z" stroke="#040035"/>
<path d="M58.357 68.323H59.6197C60.0552 68.3229 60.4251 68.1561 60.6832 67.8757C60.9351 67.6019 61.0582 67.2444 61.0582 66.8913C61.0581 66.4803 60.9287 66.1039 60.6461 65.8318C60.3665 65.5627 59.9954 65.4519 59.6197 65.4519H58.357V68.323ZM57.9371 65.3327C57.936 65.2924 57.9428 65.253 57.9557 65.2175C57.9686 65.182 57.987 65.1529 58.0074 65.1306C58.0277 65.1085 58.0489 65.0933 58.0689 65.0847C58.0889 65.0762 58.1091 65.0732 58.1275 65.074L58.1373 65.0749H59.8912C60.3231 65.0749 60.7284 65.2272 61.023 65.5144C61.3125 65.7966 61.5299 66.2423 61.5299 66.8962C61.5298 67.474 61.3683 67.9259 61.11 68.2253C60.8596 68.5154 60.4797 68.7077 59.9351 68.7077H58.357V70.6374C58.357 70.8209 58.3084 70.895 58.2877 70.9177C58.2709 70.9361 58.2353 70.9626 58.1471 70.9626C58.0586 70.9625 58.0239 70.9358 58.0074 70.9177C57.987 70.8954 57.9371 70.8218 57.9371 70.6374V65.3327Z" stroke="#040035"/>
<path d="M64.0582 70.0584H65.2906C65.9595 70.0584 66.5077 69.8111 66.8746 69.3445C67.2271 68.8963 67.3668 68.3042 67.3668 67.6873C67.3668 67.0826 67.2223 66.5113 66.8736 66.0818C66.5128 65.6373 65.9825 65.4051 65.3502 65.4051H64.0582V70.0584ZM63.6773 65.2752C63.6763 65.2458 63.6811 65.2166 63.691 65.1902C63.7009 65.1639 63.7159 65.1417 63.733 65.1238C63.7501 65.1061 63.7691 65.0928 63.7887 65.0848C63.8081 65.0768 63.8286 65.0733 63.8482 65.074H65.5152C66.2673 65.074 66.8351 65.3796 67.2232 65.8435C67.6192 66.3168 67.8443 66.9766 67.8443 67.6873C67.8443 68.61 67.5496 69.2804 67.1314 69.7166C66.7116 70.1545 66.1369 70.3885 65.5152 70.3885H63.8482C63.8285 70.3892 63.8081 70.3857 63.7887 70.3777C63.7692 70.3697 63.75 70.3573 63.733 70.3396C63.7158 70.3217 63.701 70.2986 63.691 70.2723C63.6812 70.2461 63.6764 70.2174 63.6773 70.1883V65.2752Z" stroke="#040035"/>
<path d="M69.9928 65.3357C69.9914 65.2923 69.9984 65.2503 70.0114 65.2126C70.0243 65.175 70.042 65.1446 70.0612 65.1228C70.0801 65.1012 70.0989 65.0885 70.1139 65.0818C70.1285 65.0752 70.1419 65.0735 70.153 65.074H72.2565C72.3525 65.074 72.382 65.1031 72.3903 65.112C72.4028 65.1256 72.4371 65.174 72.4371 65.2937C72.4371 65.4283 72.4002 65.4728 72.3932 65.4802C72.3897 65.4839 72.3625 65.5144 72.2565 65.5144H70.3531V67.7331H72.0807C72.1815 67.7331 72.2099 67.7623 72.2155 67.7683C72.2249 67.7784 72.2604 67.8251 72.2604 67.9529C72.2603 68.0801 72.225 68.1262 72.2155 68.1365C72.2103 68.142 72.1826 68.1726 72.0807 68.1726H70.3531V70.6374C70.3531 70.8263 70.3044 70.903 70.2848 70.9255C70.2711 70.9411 70.2451 70.9626 70.1725 70.9626C70.1004 70.9625 70.0753 70.9414 70.0621 70.9265C70.0429 70.9045 69.9928 70.8276 69.9928 70.6374V65.3357Z" stroke="#040035"/>
<path d="M71.3629 33.5144C71.4158 33.5307 71.464 33.5601 71.5035 33.5993L79.7604 41.8825C79.8084 41.9307 79.8417 41.9921 79.8551 42.0593C79.8684 42.1266 79.8617 42.1972 79.8355 42.2605C79.8094 42.3236 79.7649 42.377 79.7086 42.4148C79.6521 42.4526 79.5858 42.4724 79.5182 42.4724H73.4967L73.2418 42.4597C72.652 42.4004 72.0976 42.1387 71.6744 41.7146C71.1906 41.2296 70.9176 40.572 70.9166 39.8855V34.2077H52.8297C52.2335 34.2089 51.6623 34.447 51.2418 34.8699C50.8215 35.2926 50.586 35.8653 50.5865 36.4616V73.7673C50.5872 74.364 50.8241 74.9362 51.2457 75.3581C51.6671 75.7799 52.2385 76.0165 52.8346 76.0163V76.0173H76.9723C77.5677 76.0165 78.1385 75.7789 78.5592 75.3572C78.9799 74.9354 79.2157 74.3632 79.2164 73.7673V45.5241C79.2164 45.4321 79.2535 45.3437 79.318 45.279C79.382 45.2149 79.4683 45.1789 79.5582 45.1784C79.6485 45.1788 79.7352 45.2154 79.7994 45.28C79.8636 45.3446 79.9 45.4324 79.9 45.5241V73.7624L79.8854 74.0525C79.818 74.726 79.5209 75.359 79.0396 75.8415C78.4898 76.3928 77.7444 76.7029 76.9674 76.7038H52.8326C52.0556 76.7029 51.3102 76.3928 50.7604 75.8415C50.2106 75.2903 49.9011 74.5425 49.9 73.7624V36.4587C49.901 35.6786 50.2107 34.9309 50.7604 34.3796C51.31 33.8283 52.0548 33.5175 52.8316 33.5163L52.8307 33.5154L71.1051 33.5144H71.152L71.1988 33.5056C71.2533 33.4952 71.3099 33.4981 71.3629 33.5144ZM71.6031 39.8825C71.6039 40.3846 71.8033 40.8661 72.1578 41.2214C72.5125 41.5768 72.9937 41.7776 73.4957 41.7781H73.4967L77.4791 41.7741L78.6822 41.7732L77.8326 40.9216L72.4566 35.532L71.6031 34.6755V39.8825Z" stroke="#040035"/>
<defs>
<filter id="filter0_d_0_1" x="0" y="1.59979" width="138.8" height="115.8" filterUnits="userSpaceOnUse" color-interpolation-filters="sRGB">
<feFlood flood-opacity="0" result="BackgroundImageFix"/>
<feColorMatrix in="SourceAlpha" type="matrix" values="0 0 0 0 0 0 0 0 0 0 0 0 0 0 0 0 0 0 127 0" result="hardAlpha"/>
<feOffset dx="4" dy="4"/>
<feGaussianBlur stdDeviation="10.2"/>
<feComposite in2="hardAlpha" operator="out"/>
<feColorMatrix type="matrix" values="0 0 0 0 0 0 0 0 0 0 0 0 0 0 0 0 0 0 0.05 0"/>
<feBlend mode="normal" in2="BackgroundImageFix" result="effect1_dropShadow_0_1"/>
<feBlend mode="normal" in="SourceGraphic" in2="effect1_dropShadow_0_1" result="shape"/>
</filter>
</defs>
</svg>
