<svg width="139" height="116" viewBox="0 0 139 116" fill="none" xmlns="http://www.w3.org/2000/svg">
<path d="M111.521 12.6053L123.528 6.70171C123.634 6.64948 123.767 6.67295 123.863 6.76085C123.959 6.84884 123.999 6.9836 123.963 7.10104L119.986 20.3587C119.95 20.4783 119.844 20.5551 119.719 20.5515C119.693 20.5507 119.666 20.5462 119.64 20.5384C119.548 20.5101 119.467 20.4382 119.427 20.3425L117.96 15.6348C117.77 15.0259 117.271 14.5489 116.674 14.4048L111.604 13.1823C111.484 13.1427 111.392 13.0324 111.374 12.9047C111.355 12.7769 111.414 12.658 111.521 12.6053Z" fill="#F54387"/>
<g filter="url(#filter0_d_0_1)">
<rect x="16.4" y="16.4" width="98" height="75" rx="5" fill="white"/>
</g>
<path d="M87.3884 48.8683C87.4156 48.8673 87.4428 48.872 87.4681 48.8812C87.4936 48.8905 87.517 48.9045 87.5364 48.9222C87.546 48.931 87.5544 48.941 87.5619 48.9512L87.5815 48.984C87.5924 49.0076 87.5985 49.0333 87.599 49.0587C87.5994 49.0842 87.5942 49.1098 87.5842 49.1336L87.5738 49.1577L87.5662 49.1829C87.565 49.187 87.5638 49.1909 87.563 49.1935L81.0413 67.4355L81.0392 67.4403C81.0065 67.5346 80.9443 67.6174 80.8597 67.6757C80.7751 67.7339 80.6727 67.7638 80.5682 67.7614C80.543 67.7605 80.5178 67.7589 80.4931 67.7544L80.4185 67.7337L71.8366 64.7248L71.3384 64.5497L71.1904 65.0575L70.0203 69.093L70.8616 69.5785L73.0419 67.3032C73.0782 67.2654 73.1298 67.2422 73.1852 67.2407C73.2407 67.2394 73.2935 67.2603 73.3322 67.2966C73.3706 67.3326 73.3925 67.3807 73.3939 67.4302C73.3953 67.4798 73.3764 67.5297 73.3403 67.5674L69.2395 71.8448L69.2375 71.8467C69.0552 72.0391 68.8302 72.0727 68.6251 72.0163C68.5193 71.9872 68.4308 71.9366 68.3719 71.8833C68.3162 71.8328 68.3051 71.798 68.304 71.7944L68.3024 71.7827L68.2997 71.7718L66.5953 63.7409L66.5287 63.4294L66.2191 63.3573L60.4076 62.0089C60.3085 61.9858 60.2199 61.9325 60.1539 61.8582C60.088 61.7839 60.0479 61.6917 60.0381 61.5951C60.0284 61.4987 60.0494 61.4013 60.0986 61.3164C60.1478 61.2316 60.2231 61.1629 60.3151 61.1212L87.3097 48.8876C87.3342 48.8765 87.361 48.8693 87.3884 48.8683ZM83.5557 51.0185L61.606 60.9675L60.2624 61.576L61.6999 61.91L66.4359 63.0087L66.6562 63.0607L66.8406 62.9281L72.7491 58.6765C72.7704 58.6611 72.7949 58.6496 72.8213 58.6433C72.8477 58.637 72.8755 58.6365 72.9025 58.6407C72.9295 58.6449 72.956 58.6544 72.9789 58.6682C73.0016 58.682 73.0209 58.7 73.036 58.7206C73.0512 58.7412 73.0624 58.7639 73.0684 58.7879C73.0743 58.8121 73.0751 58.8378 73.0712 58.8622C73.0673 58.8866 73.0581 58.9103 73.0448 58.9319C73.0315 58.9534 73.0138 58.9727 72.9925 58.988L67.1907 63.1616L66.9265 63.3525L66.9939 63.6719L68.3449 70.039L69.315 70.0748L71.048 64.0991L71.0566 64.07L71.0614 64.0399C71.0739 63.9633 71.1056 63.8908 71.1542 63.8295L71.2085 63.7724L71.2145 63.7667L84.1024 51.8407L83.5557 51.0185ZM85.4347 51.1489L71.9923 63.588L71.3836 64.1524L72.1663 64.4272L80.159 67.2293L80.6282 67.3937L80.7956 66.9255L86.2443 51.6843L85.4347 51.1489Z" stroke="#040035"/>
<path d="M64.0283 65.8565C64.0537 65.8594 64.0786 65.8667 64.1009 65.879C64.1233 65.8914 64.1433 65.9087 64.1591 65.9285C64.191 65.9685 64.2049 66.0191 64.1992 66.0693C64.1934 66.1196 64.1685 66.1663 64.1282 66.1982L52.932 75.0783L52.928 75.0811C52.9081 75.0971 52.8852 75.1091 52.8606 75.1163C52.8357 75.1236 52.809 75.1258 52.7832 75.123C52.7577 75.1202 52.733 75.1127 52.7106 75.1005C52.6879 75.088 52.6673 75.0709 52.6514 75.0509C52.6357 75.0312 52.624 75.0086 52.6171 74.9845C52.6101 74.9602 52.6084 74.9342 52.6113 74.9092C52.6143 74.8842 52.6224 74.8596 52.6348 74.8375C52.641 74.8267 52.648 74.8163 52.6562 74.8068L52.6873 74.7774L63.8845 65.8974C63.9044 65.8816 63.9272 65.8692 63.9519 65.8622C63.9766 65.8551 64.0027 65.8536 64.0283 65.8565Z" stroke="#040035"/>
<path d="M64.7878 70.2857C64.8188 70.2883 64.8482 70.2965 64.8732 70.3085C64.8981 70.3206 64.9176 70.3368 64.9316 70.3522C64.945 70.3672 64.9533 70.382 64.9577 70.3949C64.9621 70.4079 64.9628 70.4206 64.9616 70.4321C64.9603 70.4438 64.9568 70.4571 64.9488 70.4709L64.9085 70.5137L64.9045 70.5165L60.9276 73.5352L60.9226 73.538C60.9043 73.5521 60.8812 73.5651 60.8532 73.5732C60.8251 73.5813 60.7941 73.585 60.7631 73.5824C60.7321 73.5798 60.7028 73.5716 60.6778 73.5595C60.6527 73.5474 60.6334 73.5314 60.6194 73.5159C60.6056 73.5006 60.5976 73.4853 60.5932 73.4722C60.589 73.4594 60.5872 73.4473 60.5884 73.4359C60.5896 73.4243 60.5941 73.4109 60.6022 73.3972C60.6103 73.3834 60.6228 73.3682 60.6415 73.3543L60.6464 73.3506L64.6234 70.3329L64.6274 70.3301C64.6457 70.3158 64.6695 70.303 64.6977 70.2949C64.7259 70.2868 64.7568 70.2831 64.7878 70.2857Z" stroke="#040035"/>
<path d="M71.262 45.7749C71.283 45.7768 71.3048 45.7835 71.3259 45.7952C71.347 45.8069 71.3677 45.8244 71.386 45.8477L75.1528 50.6416C75.1711 50.665 75.1856 50.6939 75.1953 50.7268C75.2051 50.7599 75.2091 50.7959 75.2061 50.8317C75.2031 50.8674 75.1936 50.9016 75.1789 50.9315C75.1643 50.9613 75.145 50.9856 75.1241 51.0043C75.1033 51.0228 75.0812 51.0352 75.0596 51.0425C75.038 51.0498 75.0159 51.0524 74.9949 51.0505C74.974 51.0485 74.9528 51.0417 74.9319 51.0302C74.9108 51.0184 74.8892 51.0011 74.8709 50.9777L71.1051 46.1838C71.0867 46.1604 71.0712 46.1316 71.0615 46.0985C71.0518 46.0654 71.0477 46.0295 71.0508 45.9937C71.0538 45.9581 71.0643 45.9247 71.0789 45.8948C71.0936 45.865 71.1119 45.8398 71.1327 45.8211C71.1536 45.8025 71.1766 45.7902 71.1983 45.7829C71.2197 45.7757 71.2412 45.773 71.262 45.7749Z" stroke="#040035"/>
<path d="M80.0266 31.9106C80.7592 31.9319 81.4525 32.24 81.9547 32.7653C82.3941 33.2248 82.6557 33.8176 82.7015 34.441L82.7077 34.7098L82.345 47.7663C82.3445 47.7912 82.3395 47.816 82.3293 47.8391C82.319 47.8625 82.3037 47.8842 82.2845 47.9024C82.2654 47.9205 82.2424 47.9347 82.2169 47.9444C82.1914 47.9541 82.1641 47.9596 82.1364 47.9588C82.1088 47.958 82.0818 47.9511 82.0568 47.94C82.032 47.9289 82.0098 47.9134 81.9917 47.8942C81.9735 47.875 81.9595 47.8525 81.9505 47.8286C81.9416 47.8049 81.937 47.7799 81.9379 47.755L82.2749 35.6249L81.4791 36.1352L66.0966 46.0068C65.1846 46.5866 64.116 46.8809 63.0309 46.8507C61.9458 46.8205 60.8953 46.4676 60.0169 45.8379L45.206 35.1276L44.4399 34.5739L43.8858 54.5183C43.8743 54.946 43.9825 55.3682 44.1978 55.7384L44.5334 56.3163L44.9934 55.8308L54.6432 45.6437C54.6704 45.615 54.706 45.5942 54.7455 45.585L54.7867 45.5793C54.8423 45.5775 54.8954 45.598 54.9346 45.6342C54.9737 45.6704 54.9956 45.7195 54.9973 45.7698C54.999 45.82 54.9807 45.8699 54.9446 45.908L45.3823 56.0019L44.8116 56.6054L45.6114 56.8279C45.793 56.8783 45.9804 56.9068 46.1689 56.9127L59.9692 57.2961C59.9968 57.2966 60.0238 57.3022 60.0488 57.313C60.0739 57.3238 60.0966 57.3397 60.115 57.3588C60.1332 57.3777 60.1469 57.3997 60.1562 57.4234C60.1654 57.4471 60.1704 57.472 60.1697 57.497C60.169 57.5222 60.1626 57.5476 60.1521 57.5708C60.1415 57.5939 60.1266 57.6152 60.1073 57.6331C60.0879 57.651 60.0644 57.6657 60.0388 57.6751C60.0132 57.6845 59.9858 57.6886 59.9583 57.6875L46.1599 57.3042C45.6487 57.2906 45.151 57.1359 44.7245 56.858L44.6314 56.7968L44.5215 56.782L44.4662 56.7658C44.4492 56.7583 44.4334 56.7488 44.4191 56.7371C44.3904 56.7134 44.3695 56.6821 44.3581 56.6485L44.321 56.5419L44.2422 56.4606L44.0642 56.2574C43.8959 56.0456 43.7599 55.8101 43.6615 55.5584C43.5305 55.223 43.4686 54.8651 43.4788 54.5061L44.0585 33.6362C44.0793 32.9163 44.3879 32.2329 44.9182 31.7365C45.3826 31.3019 45.9842 31.0415 46.6182 30.9963L46.8919 30.9902L80.0266 31.9106ZM46.88 31.3816C46.259 31.3651 45.6555 31.5933 45.2026 32.0169C44.7494 32.441 44.4835 33.0272 44.4656 33.6465L44.4532 34.0936L44.6677 34.2481L60.261 45.5243L60.262 45.5253C61.0729 46.1071 62.0418 46.4334 63.0417 46.4612C64.0417 46.489 65.0272 46.2169 65.8692 45.681L65.8702 45.6801L82.0664 35.2869L82.2882 35.1446L82.3006 34.6975L82.2953 34.4658C82.2559 33.9301 82.0315 33.4219 81.6563 33.0296C81.2276 32.5813 80.6377 32.3201 80.0167 32.3021L46.88 31.3816Z" stroke="#040035"/>
<defs>
<filter id="filter0_d_0_1" x="-5.72205e-06" y="2.47955e-05" width="138.8" height="115.8" filterUnits="userSpaceOnUse" color-interpolation-filters="sRGB">
<feFlood flood-opacity="0" result="BackgroundImageFix"/>
<feColorMatrix in="SourceAlpha" type="matrix" values="0 0 0 0 0 0 0 0 0 0 0 0 0 0 0 0 0 0 127 0" result="hardAlpha"/>
<feOffset dx="4" dy="4"/>
<feGaussianBlur stdDeviation="10.2"/>
<feComposite in2="hardAlpha" operator="out"/>
<feColorMatrix type="matrix" values="0 0 0 0 0 0 0 0 0 0 0 0 0 0 0 0 0 0 0.05 0"/>
<feBlend mode="normal" in2="BackgroundImageFix" result="effect1_dropShadow_0_1"/>
<feBlend mode="normal" in="SourceGraphic" in2="effect1_dropShadow_0_1" result="shape"/>
</filter>
</defs>
</svg>
