<svg width="140" height="116" viewBox="0 0 140 116" fill="none" xmlns="http://www.w3.org/2000/svg">
<path d="M18.6957 97.7775L0.60601 99.7787C0.445865 99.7963 0.287074 99.705 0.205003 99.5482C0.122995 99.3913 0.134361 99.2005 0.23376 99.0666L11.4511 83.9452C11.5522 83.8089 11.7236 83.7597 11.8811 83.8218C11.9152 83.8352 11.947 83.8532 11.9762 83.8751C12.0817 83.9542 12.1514 84.0833 12.1588 84.2245L11.8591 90.9251C11.8203 91.7918 12.2377 92.6325 12.9356 93.0931L18.8557 97.0008C18.9916 97.1072 19.0579 97.2906 19.0225 97.4626C18.987 97.6345 18.8572 97.7596 18.6957 97.7775Z" fill="#F9B816"/>
<g filter="url(#filter0_d_0_1)">
<rect x="17" y="16.4" width="98" height="75" rx="5" fill="white"/>
</g>
<mask id="path-3-inside-1_0_1" fill="white">
<path fill-rule="evenodd" clip-rule="evenodd" d="M52.6628 67.6171L50.9812 69.2986L52.6628 70.9806C52.9058 71.2242 52.9058 71.6191 52.6628 71.8626C52.5408 71.9842 52.3815 72.0454 52.2219 72.0454C52.0626 72.0454 51.9029 71.9842 51.781 71.8626L50.0994 70.1806L48.4187 71.8626C48.1748 72.1062 47.78 72.1062 47.5369 71.8626C47.2926 71.619 47.2926 71.2241 47.5369 70.9806L49.2176 69.2986L47.5369 67.6171C47.2926 67.3735 47.2926 66.9786 47.5369 66.7351C47.78 66.4915 48.1748 66.4915 48.4187 66.7351L50.0994 68.4166L51.7809 66.7351C52.024 66.4915 52.4196 66.4915 52.6627 66.7351C52.9058 66.9787 52.9058 67.3735 52.6628 67.6171ZM82.2669 31.4H81.5345C78.3409 31.5901 75.8013 34.2488 75.8013 37.4896C75.8013 40.8539 78.5372 43.591 81.9006 43.591C85.2636 43.591 88 40.8539 88 37.4896C88.0001 34.2487 85.46 31.5901 82.2669 31.4ZM50.0994 74.1528C52.775 74.1528 54.9519 71.9753 54.9519 69.2986C54.9519 66.6223 52.7751 64.4449 50.0994 64.4449C47.4237 64.4449 45.2469 66.6223 45.2469 69.2986C45.2469 71.9754 47.4238 74.1528 50.0994 74.1528ZM50.0994 63.1977C46.736 63.1977 44 65.9348 44 69.2986C44 72.6629 46.736 75.4 50.0994 75.4C53.4628 75.4 56.1988 72.6629 56.1988 69.2986C56.1988 65.9348 53.4629 63.1977 50.0994 63.1977ZM83.9581 45.3266C85.1028 47.87 85.6824 50.5845 85.6824 53.3941C85.6824 58.6529 83.6346 63.5967 79.9171 67.3153C76.2003 71.0338 71.2577 73.0813 66.0003 73.0813C63.8079 73.0813 61.6696 72.7266 59.6239 72.0253L60.7815 74.0305C60.9533 74.3286 60.8511 74.7101 60.5527 74.8824C60.4546 74.9389 60.3477 74.9658 60.2416 74.9658C60.0262 74.9658 59.8167 74.8542 59.701 74.6539L57.6498 71.1005C57.5668 70.9572 57.5446 70.7869 57.5874 70.6272C57.6301 70.467 57.7353 70.3312 57.8778 70.2486L61.4307 68.1966C61.7291 68.0243 62.1105 68.1265 62.2832 68.4251C62.455 68.7232 62.3528 69.1047 62.0544 69.277L59.6013 70.6935C61.6454 71.4511 63.7942 71.8343 66.0004 71.8343C76.1657 71.8343 84.4356 63.5622 84.4356 53.3943C84.4356 50.7624 83.8925 48.2198 82.8208 45.8382C82.68 45.5243 82.82 45.1549 83.1343 45.0136C83.4476 44.8721 83.8173 45.0122 83.9581 45.3266ZM48.042 61.4621C48.1459 61.6936 48.3735 61.8302 48.6111 61.8302C48.6966 61.8302 48.7829 61.8127 48.8659 61.7753C49.1803 61.634 49.3203 61.2648 49.1795 60.9507C48.1078 58.5691 47.5646 56.0265 47.5646 53.3942C47.5646 43.2268 55.8346 34.9547 66.0003 34.9547C68.2061 34.9547 70.3545 35.3379 72.3989 36.0954L69.9459 37.512C69.6474 37.6843 69.5448 38.0658 69.7179 38.3639C69.8897 38.6623 70.2707 38.7642 70.5695 38.5919L74.1223 36.5402C74.4199 36.3684 74.5222 35.9869 74.3504 35.6883L72.2987 32.1346C72.1269 31.8365 71.7451 31.7342 71.4475 31.9065C71.1491 32.0788 71.0469 32.4603 71.2187 32.7583L72.3767 34.7635C70.3305 34.0621 68.1918 33.707 66.0002 33.707C60.7433 33.707 55.7998 35.7549 52.083 39.4734C48.365 43.1919 46.3172 48.1358 46.3172 53.3942C46.3173 56.2042 46.8982 58.9186 48.042 61.4621ZM66.0002 48.4146C63.255 48.4146 61.022 50.6487 61.022 53.3941C61.022 56.14 63.255 58.3741 66.0002 58.3741C68.745 58.3741 70.978 56.14 70.978 53.3941C70.9781 50.6487 68.7451 48.4146 66.0002 48.4146ZM66.0002 59.6213C69.4328 59.6213 72.2249 56.8275 72.2249 53.3941C72.2249 49.9607 69.4328 47.1674 66.0002 47.1674C62.5672 47.1674 59.7751 49.9607 59.7751 53.3941C59.7751 56.8275 62.5672 59.6213 66.0002 59.6213ZM57.3727 60.1734C58.3053 59.2406 58.5706 57.9024 58.0647 56.6817C57.5597 55.4613 56.4259 54.703 55.107 54.703C55.0286 54.703 54.9645 54.6388 54.9645 54.5604V52.2283C54.9645 52.1499 55.0286 52.0857 55.107 52.0857C56.426 52.0857 57.5597 51.3274 58.0647 50.1065C58.5706 48.8862 58.3053 47.548 57.3727 46.6152C57.3166 46.5594 57.3166 46.4694 57.3727 46.4136L59.0216 44.7643C59.0764 44.709 59.1675 44.709 59.2228 44.7643C60.1553 45.6976 61.4932 45.9629 62.7132 45.4573C63.9336 44.9517 64.6919 43.8177 64.6919 42.4984C64.6919 42.42 64.7556 42.3558 64.8344 42.3558H67.166C67.2443 42.3558 67.3085 42.42 67.3085 42.4984C67.3085 43.8176 68.0666 44.9517 69.2867 45.4573C70.5071 45.9629 71.8449 45.6975 72.7775 44.7643C72.8332 44.709 72.9234 44.709 72.9787 44.7643L74.6275 46.4136C74.6837 46.4694 74.6837 46.5595 74.6275 46.6152C73.695 47.548 73.4293 48.8862 73.9352 50.1065C74.4402 51.3274 75.5743 52.0857 76.8933 52.0857C76.9717 52.0857 77.0358 52.1499 77.0358 52.2283V54.5604C77.0358 54.6388 76.9717 54.703 76.8933 54.703C75.5743 54.703 74.4402 55.4613 73.9352 56.6817C73.4293 57.9025 73.6951 59.2407 74.6284 60.1734C74.6624 60.2078 74.6695 60.2472 74.6695 60.274C74.6695 60.3008 74.6624 60.3406 74.6275 60.375L72.9787 62.0242C72.9234 62.0795 72.8332 62.0795 72.7775 62.0242C71.8449 61.0909 70.5071 60.8256 69.2867 61.3312C68.0666 61.8368 67.3085 62.9708 67.3085 64.2901C67.3085 64.3685 67.2443 64.4326 67.166 64.4326H64.8344C64.7556 64.4326 64.6919 64.3685 64.6919 64.2901C64.6919 62.9691 63.9345 61.8347 62.7145 61.3295C62.3054 61.1602 61.8834 61.0771 61.4671 61.0771C60.6424 61.0771 59.8435 61.4029 59.2228 62.0242C59.1675 62.0795 59.0765 62.0795 59.0216 62.0242L57.3727 60.375C57.3166 60.3193 57.3166 60.2292 57.3727 60.1734ZM59.1221 63.313C58.7508 63.313 58.4012 63.1684 58.1397 62.9064L56.4909 61.2571C55.9486 60.7151 55.9486 59.8334 56.4909 59.2914C57.1716 58.611 57.1552 57.7436 56.913 57.1592C56.6711 56.5748 56.0697 55.9502 55.107 55.9502C54.3409 55.9502 53.7173 55.3268 53.7173 54.5604V52.2283C53.7173 51.4619 54.3409 50.8385 55.107 50.8385C56.0697 50.8385 56.6711 50.2139 56.913 49.6294C57.1552 49.0446 57.1715 48.1777 56.4909 47.4969C55.9486 46.9553 55.9486 46.0736 56.4909 45.5315L58.1397 43.8823C58.6812 43.3407 59.563 43.3407 60.1045 43.8823C60.7851 44.5631 61.6514 44.5472 62.2357 44.3049C62.82 44.0625 63.4445 43.461 63.4445 42.4984C63.4445 41.7321 64.0681 41.1087 64.8343 41.1087H67.1659C67.932 41.1087 68.5553 41.7321 68.5553 42.4984C68.5553 43.461 69.1797 44.0625 69.764 44.3049C70.3487 44.5468 71.2149 44.5631 71.8956 43.8823C72.4372 43.3407 73.3189 43.3407 73.8605 43.8823L75.5089 45.5315C75.7716 45.7944 75.9163 46.1432 75.9163 46.5145C75.9163 46.8855 75.7717 47.2344 75.5089 47.4968C74.8287 48.1776 74.8454 49.0446 75.0868 49.6294C75.329 50.2137 75.9304 50.8384 76.8932 50.8384C77.6594 50.8384 78.2826 51.4618 78.2826 52.2282V54.5603C78.2826 55.3267 77.6594 55.9501 76.8932 55.9501C75.9304 55.9501 75.329 56.5747 75.0868 57.1591C74.8454 57.7435 74.8287 58.6109 75.5089 59.2913C75.7716 59.5537 75.9163 59.9029 75.9163 60.274C75.9163 60.6454 75.7717 60.9942 75.5089 61.2571L73.8605 62.9064C73.5985 63.1684 73.2494 63.313 72.878 63.313C72.5076 63.313 72.1585 63.1684 71.8956 62.9064C71.2149 62.2255 70.3487 62.2415 69.764 62.4838C69.1798 62.7257 68.5553 63.3277 68.5553 64.2902C68.5553 65.0566 67.932 65.68 67.1659 65.68H64.8343C64.0681 65.68 63.4445 65.0566 63.4445 64.2902C63.4445 63.326 62.8213 62.724 62.237 62.4818C61.6528 62.2399 60.786 62.2244 60.1045 62.9065C59.8417 63.1683 59.4927 63.313 59.1221 63.313ZM84.8873 35.692C85.1044 35.9599 85.0633 36.3523 84.7951 36.569L80.8105 39.8C80.699 39.8905 80.5599 39.9392 80.4178 39.9392C80.3872 39.9392 80.3562 39.9367 80.3247 39.9321C80.152 39.906 79.9979 39.8084 79.9002 39.6634L78.515 37.6C78.3234 37.3141 78.3993 36.9267 78.6851 36.7347C78.9709 36.5427 79.3586 36.6186 79.551 36.9049L80.5556 38.4015L84.0104 35.6003C84.2779 35.3834 84.6706 35.4245 84.8873 35.692ZM81.9006 42.3434C79.225 42.3434 77.0482 40.1664 77.0482 37.4897C77.0482 34.8134 79.225 32.636 81.9006 32.636C84.5763 32.636 86.7531 34.8134 86.7531 37.4897C86.7532 40.1664 84.5763 42.3434 81.9006 42.3434Z"/>
</mask>
<path fill-rule="evenodd" clip-rule="evenodd" d="M52.6628 67.6171L50.9812 69.2986L52.6628 70.9806C52.9058 71.2242 52.9058 71.6191 52.6628 71.8626C52.5408 71.9842 52.3815 72.0454 52.2219 72.0454C52.0626 72.0454 51.9029 71.9842 51.781 71.8626L50.0994 70.1806L48.4187 71.8626C48.1748 72.1062 47.78 72.1062 47.5369 71.8626C47.2926 71.619 47.2926 71.2241 47.5369 70.9806L49.2176 69.2986L47.5369 67.6171C47.2926 67.3735 47.2926 66.9786 47.5369 66.7351C47.78 66.4915 48.1748 66.4915 48.4187 66.7351L50.0994 68.4166L51.7809 66.7351C52.024 66.4915 52.4196 66.4915 52.6627 66.7351C52.9058 66.9787 52.9058 67.3735 52.6628 67.6171ZM82.2669 31.4H81.5345C78.3409 31.5901 75.8013 34.2488 75.8013 37.4896C75.8013 40.8539 78.5372 43.591 81.9006 43.591C85.2636 43.591 88 40.8539 88 37.4896C88.0001 34.2487 85.46 31.5901 82.2669 31.4ZM50.0994 74.1528C52.775 74.1528 54.9519 71.9753 54.9519 69.2986C54.9519 66.6223 52.7751 64.4449 50.0994 64.4449C47.4237 64.4449 45.2469 66.6223 45.2469 69.2986C45.2469 71.9754 47.4238 74.1528 50.0994 74.1528ZM50.0994 63.1977C46.736 63.1977 44 65.9348 44 69.2986C44 72.6629 46.736 75.4 50.0994 75.4C53.4628 75.4 56.1988 72.6629 56.1988 69.2986C56.1988 65.9348 53.4629 63.1977 50.0994 63.1977ZM83.9581 45.3266C85.1028 47.87 85.6824 50.5845 85.6824 53.3941C85.6824 58.6529 83.6346 63.5967 79.9171 67.3153C76.2003 71.0338 71.2577 73.0813 66.0003 73.0813C63.8079 73.0813 61.6696 72.7266 59.6239 72.0253L60.7815 74.0305C60.9533 74.3286 60.8511 74.7101 60.5527 74.8824C60.4546 74.9389 60.3477 74.9658 60.2416 74.9658C60.0262 74.9658 59.8167 74.8542 59.701 74.6539L57.6498 71.1005C57.5668 70.9572 57.5446 70.7869 57.5874 70.6272C57.6301 70.467 57.7353 70.3312 57.8778 70.2486L61.4307 68.1966C61.7291 68.0243 62.1105 68.1265 62.2832 68.4251C62.455 68.7232 62.3528 69.1047 62.0544 69.277L59.6013 70.6935C61.6454 71.4511 63.7942 71.8343 66.0004 71.8343C76.1657 71.8343 84.4356 63.5622 84.4356 53.3943C84.4356 50.7624 83.8925 48.2198 82.8208 45.8382C82.68 45.5243 82.82 45.1549 83.1343 45.0136C83.4476 44.8721 83.8173 45.0122 83.9581 45.3266ZM48.042 61.4621C48.1459 61.6936 48.3735 61.8302 48.6111 61.8302C48.6966 61.8302 48.7829 61.8127 48.8659 61.7753C49.1803 61.634 49.3203 61.2648 49.1795 60.9507C48.1078 58.5691 47.5646 56.0265 47.5646 53.3942C47.5646 43.2268 55.8346 34.9547 66.0003 34.9547C68.2061 34.9547 70.3545 35.3379 72.3989 36.0954L69.9459 37.512C69.6474 37.6843 69.5448 38.0658 69.7179 38.3639C69.8897 38.6623 70.2707 38.7642 70.5695 38.5919L74.1223 36.5402C74.4199 36.3684 74.5222 35.9869 74.3504 35.6883L72.2987 32.1346C72.1269 31.8365 71.7451 31.7342 71.4475 31.9065C71.1491 32.0788 71.0469 32.4603 71.2187 32.7583L72.3767 34.7635C70.3305 34.0621 68.1918 33.707 66.0002 33.707C60.7433 33.707 55.7998 35.7549 52.083 39.4734C48.365 43.1919 46.3172 48.1358 46.3172 53.3942C46.3173 56.2042 46.8982 58.9186 48.042 61.4621ZM66.0002 48.4146C63.255 48.4146 61.022 50.6487 61.022 53.3941C61.022 56.14 63.255 58.3741 66.0002 58.3741C68.745 58.3741 70.978 56.14 70.978 53.3941C70.9781 50.6487 68.7451 48.4146 66.0002 48.4146ZM66.0002 59.6213C69.4328 59.6213 72.2249 56.8275 72.2249 53.3941C72.2249 49.9607 69.4328 47.1674 66.0002 47.1674C62.5672 47.1674 59.7751 49.9607 59.7751 53.3941C59.7751 56.8275 62.5672 59.6213 66.0002 59.6213ZM57.3727 60.1734C58.3053 59.2406 58.5706 57.9024 58.0647 56.6817C57.5597 55.4613 56.4259 54.703 55.107 54.703C55.0286 54.703 54.9645 54.6388 54.9645 54.5604V52.2283C54.9645 52.1499 55.0286 52.0857 55.107 52.0857C56.426 52.0857 57.5597 51.3274 58.0647 50.1065C58.5706 48.8862 58.3053 47.548 57.3727 46.6152C57.3166 46.5594 57.3166 46.4694 57.3727 46.4136L59.0216 44.7643C59.0764 44.709 59.1675 44.709 59.2228 44.7643C60.1553 45.6976 61.4932 45.9629 62.7132 45.4573C63.9336 44.9517 64.6919 43.8177 64.6919 42.4984C64.6919 42.42 64.7556 42.3558 64.8344 42.3558H67.166C67.2443 42.3558 67.3085 42.42 67.3085 42.4984C67.3085 43.8176 68.0666 44.9517 69.2867 45.4573C70.5071 45.9629 71.8449 45.6975 72.7775 44.7643C72.8332 44.709 72.9234 44.709 72.9787 44.7643L74.6275 46.4136C74.6837 46.4694 74.6837 46.5595 74.6275 46.6152C73.695 47.548 73.4293 48.8862 73.9352 50.1065C74.4402 51.3274 75.5743 52.0857 76.8933 52.0857C76.9717 52.0857 77.0358 52.1499 77.0358 52.2283V54.5604C77.0358 54.6388 76.9717 54.703 76.8933 54.703C75.5743 54.703 74.4402 55.4613 73.9352 56.6817C73.4293 57.9025 73.6951 59.2407 74.6284 60.1734C74.6624 60.2078 74.6695 60.2472 74.6695 60.274C74.6695 60.3008 74.6624 60.3406 74.6275 60.375L72.9787 62.0242C72.9234 62.0795 72.8332 62.0795 72.7775 62.0242C71.8449 61.0909 70.5071 60.8256 69.2867 61.3312C68.0666 61.8368 67.3085 62.9708 67.3085 64.2901C67.3085 64.3685 67.2443 64.4326 67.166 64.4326H64.8344C64.7556 64.4326 64.6919 64.3685 64.6919 64.2901C64.6919 62.9691 63.9345 61.8347 62.7145 61.3295C62.3054 61.1602 61.8834 61.0771 61.4671 61.0771C60.6424 61.0771 59.8435 61.4029 59.2228 62.0242C59.1675 62.0795 59.0765 62.0795 59.0216 62.0242L57.3727 60.375C57.3166 60.3193 57.3166 60.2292 57.3727 60.1734ZM59.1221 63.313C58.7508 63.313 58.4012 63.1684 58.1397 62.9064L56.4909 61.2571C55.9486 60.7151 55.9486 59.8334 56.4909 59.2914C57.1716 58.611 57.1552 57.7436 56.913 57.1592C56.6711 56.5748 56.0697 55.9502 55.107 55.9502C54.3409 55.9502 53.7173 55.3268 53.7173 54.5604V52.2283C53.7173 51.4619 54.3409 50.8385 55.107 50.8385C56.0697 50.8385 56.6711 50.2139 56.913 49.6294C57.1552 49.0446 57.1715 48.1777 56.4909 47.4969C55.9486 46.9553 55.9486 46.0736 56.4909 45.5315L58.1397 43.8823C58.6812 43.3407 59.563 43.3407 60.1045 43.8823C60.7851 44.5631 61.6514 44.5472 62.2357 44.3049C62.82 44.0625 63.4445 43.461 63.4445 42.4984C63.4445 41.7321 64.0681 41.1087 64.8343 41.1087H67.1659C67.932 41.1087 68.5553 41.7321 68.5553 42.4984C68.5553 43.461 69.1797 44.0625 69.764 44.3049C70.3487 44.5468 71.2149 44.5631 71.8956 43.8823C72.4372 43.3407 73.3189 43.3407 73.8605 43.8823L75.5089 45.5315C75.7716 45.7944 75.9163 46.1432 75.9163 46.5145C75.9163 46.8855 75.7717 47.2344 75.5089 47.4968C74.8287 48.1776 74.8454 49.0446 75.0868 49.6294C75.329 50.2137 75.9304 50.8384 76.8932 50.8384C77.6594 50.8384 78.2826 51.4618 78.2826 52.2282V54.5603C78.2826 55.3267 77.6594 55.9501 76.8932 55.9501C75.9304 55.9501 75.329 56.5747 75.0868 57.1591C74.8454 57.7435 74.8287 58.6109 75.5089 59.2913C75.7716 59.5537 75.9163 59.9029 75.9163 60.274C75.9163 60.6454 75.7717 60.9942 75.5089 61.2571L73.8605 62.9064C73.5985 63.1684 73.2494 63.313 72.878 63.313C72.5076 63.313 72.1585 63.1684 71.8956 62.9064C71.2149 62.2255 70.3487 62.2415 69.764 62.4838C69.1798 62.7257 68.5553 63.3277 68.5553 64.2902C68.5553 65.0566 67.932 65.68 67.1659 65.68H64.8343C64.0681 65.68 63.4445 65.0566 63.4445 64.2902C63.4445 63.326 62.8213 62.724 62.237 62.4818C61.6528 62.2399 60.786 62.2244 60.1045 62.9065C59.8417 63.1683 59.4927 63.313 59.1221 63.313ZM84.8873 35.692C85.1044 35.9599 85.0633 36.3523 84.7951 36.569L80.8105 39.8C80.699 39.8905 80.5599 39.9392 80.4178 39.9392C80.3872 39.9392 80.3562 39.9367 80.3247 39.9321C80.152 39.906 79.9979 39.8084 79.9002 39.6634L78.515 37.6C78.3234 37.3141 78.3993 36.9267 78.6851 36.7347C78.9709 36.5427 79.3586 36.6186 79.551 36.9049L80.5556 38.4015L84.0104 35.6003C84.2779 35.3834 84.6706 35.4245 84.8873 35.692ZM81.9006 42.3434C79.225 42.3434 77.0482 40.1664 77.0482 37.4897C77.0482 34.8134 79.225 32.636 81.9006 32.636C84.5763 32.636 86.7531 34.8134 86.7531 37.4897C86.7532 40.1664 84.5763 42.3434 81.9006 42.3434Z" stroke="#040035" stroke-width="2" mask="url(#path-3-inside-1_0_1)"/>
<defs>
<filter id="filter0_d_0_1" x="0.6" y="-5.72205e-06" width="138.8" height="115.8" filterUnits="userSpaceOnUse" color-interpolation-filters="sRGB">
<feFlood flood-opacity="0" result="BackgroundImageFix"/>
<feColorMatrix in="SourceAlpha" type="matrix" values="0 0 0 0 0 0 0 0 0 0 0 0 0 0 0 0 0 0 127 0" result="hardAlpha"/>
<feOffset dx="4" dy="4"/>
<feGaussianBlur stdDeviation="10.2"/>
<feComposite in2="hardAlpha" operator="out"/>
<feColorMatrix type="matrix" values="0 0 0 0 0 0 0 0 0 0 0 0 0 0 0 0 0 0 0.05 0"/>
<feBlend mode="normal" in2="BackgroundImageFix" result="effect1_dropShadow_0_1"/>
<feBlend mode="normal" in="SourceGraphic" in2="effect1_dropShadow_0_1" result="shape"/>
</filter>
</defs>
</svg>
