<svg width="139" height="116" viewBox="0 0 139 116" fill="none" xmlns="http://www.w3.org/2000/svg">
<path d="M12.2475 22.7508L2.32148 10.7681C2.23364 10.662 2.22431 10.5057 2.29777 10.3734C2.37133 10.2411 2.51298 10.1596 2.65534 10.1677L18.7261 11.0787C18.871 11.0869 18.9867 11.1863 19.0163 11.3279C19.0226 11.3586 19.0248 11.3898 19.0228 11.4208C19.0159 11.5334 18.9563 11.6438 18.859 11.7155L13.9316 14.6485C13.2942 15.0279 12.8897 15.7209 12.8884 16.4358L12.8775 22.5003C12.8654 22.6474 12.7654 22.7809 12.6259 22.8363C12.4865 22.8917 12.3362 22.8578 12.2475 22.7508Z" fill="#F54387"/>
<g filter="url(#filter0_d_0_1)">
<rect x="16.4" y="16.4" width="98" height="75" rx="5" fill="white"/>
</g>
<path d="M31.4 37.4001H99.4C100.504 37.4001 101.4 38.2957 101.4 39.4001V67.4001C101.4 68.5045 100.504 69.4001 99.4 69.4001H31.4C30.2955 69.4001 29.4 68.5045 29.4 67.4001V39.4001C29.4 38.2957 30.2955 37.4001 31.4 37.4001Z" stroke="#040035" stroke-width="2"/>
<path d="M87.071 46.2652C87.3308 45.746 87.9629 45.5358 88.4822 45.7954C89.0012 46.0552 89.2114 46.6864 88.9519 47.2056L86.196 52.7173L86.0847 52.9409L86.196 53.1646L88.9519 58.6763C89.2115 59.1955 89.0012 59.8266 88.4822 60.0865C87.9628 60.3461 87.3307 60.1361 87.071 59.6167L85.3562 56.1861L84.9089 55.2915L84.4617 56.1861L82.7468 59.6167C82.4871 60.1361 81.8551 60.3461 81.3357 60.0865C80.8167 59.8266 80.6064 59.1955 80.866 58.6763L83.6218 53.1646L83.7332 52.9409L83.6218 52.7173L80.866 47.2056C80.6065 46.6864 80.8167 46.0552 81.3357 45.7954C81.855 45.5358 82.4871 45.746 82.7468 46.2652L84.4617 49.6958L84.9089 50.5904L85.3562 49.6958L87.071 46.2652Z" fill="#040035" stroke="#040035"/>
<path d="M72.4977 45.6842H75.6002C76.1807 45.6843 76.651 46.1555 76.651 46.7359C76.6508 47.3162 76.1805 47.7866 75.6002 47.7867H72.4977C71.3649 47.7867 70.4459 48.7057 70.4459 49.8385V56.0435C70.4459 57.1763 71.3649 58.0953 72.4977 58.0953H75.6002C76.1806 58.0954 76.6509 58.5657 76.651 59.1461C76.651 59.7265 76.1807 60.1978 75.6002 60.1978H72.4977C70.2036 60.1978 68.3434 58.3376 68.3434 56.0435V49.8385C68.3434 47.5444 70.2036 45.6842 72.4977 45.6842Z" fill="#040035" stroke="#040035"/>
<path d="M60.0875 45.6842C62.3816 45.6843 64.2408 47.5445 64.2408 49.8385V56.0435C64.2408 58.3376 62.3816 60.1977 60.0875 60.1978C57.7933 60.1978 55.9332 58.3377 55.9332 56.0435V49.8385C55.9332 47.5444 57.7933 45.6842 60.0875 45.6842ZM60.0875 47.7867C58.9546 47.7867 58.0358 48.7057 58.0358 49.8385V56.0435C58.0358 57.1763 58.9546 58.0953 60.0875 58.0953C61.2203 58.0951 62.1383 57.1762 62.1383 56.0435V49.8385C62.1383 48.7058 61.2203 47.7869 60.0875 47.7867Z" fill="#040035" stroke="#040035"/>
<path d="M44.5739 45.6852H47.6764C49.9705 45.6853 51.8297 47.5454 51.8297 49.8394V56.0445C51.8297 58.3385 49.9704 60.1987 47.6764 60.1988H44.5739C43.9932 60.1988 43.5221 59.7276 43.5221 59.1471V46.7369C43.5221 46.1564 43.9932 45.6852 44.5739 45.6852ZM45.6246 58.0963H47.6764C48.8092 58.0961 49.7272 57.1772 49.7272 56.0445V49.8394C49.7272 48.7068 48.8092 47.7878 47.6764 47.7877H45.6246V58.0963Z" fill="#040035" stroke="#040035"/>
<defs>
<filter id="filter0_d_0_1" x="2.47955e-05" y="-5.72205e-06" width="138.8" height="115.8" filterUnits="userSpaceOnUse" color-interpolation-filters="sRGB">
<feFlood flood-opacity="0" result="BackgroundImageFix"/>
<feColorMatrix in="SourceAlpha" type="matrix" values="0 0 0 0 0 0 0 0 0 0 0 0 0 0 0 0 0 0 127 0" result="hardAlpha"/>
<feOffset dx="4" dy="4"/>
<feGaussianBlur stdDeviation="10.2"/>
<feComposite in2="hardAlpha" operator="out"/>
<feColorMatrix type="matrix" values="0 0 0 0 0 0 0 0 0 0 0 0 0 0 0 0 0 0 0.05 0"/>
<feBlend mode="normal" in2="BackgroundImageFix" result="effect1_dropShadow_0_1"/>
<feBlend mode="normal" in="SourceGraphic" in2="effect1_dropShadow_0_1" result="shape"/>
</filter>
</defs>
</svg>
