<svg width="139" height="116" viewBox="0 0 139 116" fill="none" xmlns="http://www.w3.org/2000/svg">
<path d="M11.0728 17.7105L9.20277 1.93131C9.18625 1.79162 9.26491 1.65237 9.40124 1.57965C9.53766 1.50699 9.70432 1.51562 9.82192 1.60148L23.0995 11.2917C23.2192 11.3791 23.2633 11.5284 23.2101 11.6663C23.1986 11.6961 23.1831 11.7241 23.1643 11.7497C23.0959 11.8424 22.9836 11.904 22.8605 11.9115L17.0086 11.6954C16.2517 11.6674 15.5206 12.0375 15.1232 12.6499L11.752 17.8449C11.66 17.9643 11.5003 18.0233 11.3499 17.9936C11.1996 17.9638 11.0895 17.8514 11.0728 17.7105Z" fill="#F66E45"/>
<g filter="url(#filter0_d_0_1)">
<rect x="16.4" y="16.4" width="98" height="75" rx="5" fill="white"/>
</g>
<path d="M52.65 33.9H70.4996C70.5937 33.9 70.6824 33.9369 70.7467 34.0016L81.7965 45.0514C81.8281 45.083 81.8542 45.1214 81.8727 45.1656V45.1666C81.8904 45.2087 81.9 45.255 81.9 45.3004V69.9498C81.9 72.0171 80.2173 73.6998 78.15 73.6998H52.65C51.9972 73.6998 51.0446 73.4989 50.2692 72.9323C49.5181 72.3833 48.9 71.4698 48.9 69.9498V37.65C48.9 35.5827 50.5827 33.9 52.65 33.9ZM52.65 34.6002C50.968 34.6002 49.6002 35.968 49.6002 37.65V69.9498C49.6002 71.3336 50.2324 72.1327 50.9684 72.5563C51.6639 72.9565 52.4047 72.9967 52.649 72.9996H78.15C79.8321 72.9996 81.1998 71.6319 81.1998 69.9498V45.65H73.9C71.8327 45.65 70.15 43.9673 70.15 41.9V39.3502C70.15 39.157 70.3062 38.9998 70.4996 38.9996C70.6933 38.9996 70.8503 39.157 70.8502 39.3502V41.9C70.8502 43.5821 72.218 44.9498 73.9 44.9498H80.7057L79.8512 44.0963L70.3551 34.6002H52.65Z" stroke="#040035"/>
<path d="M69.402 49.3024C69.5391 49.1654 69.76 49.1653 69.8971 49.3024L73.2955 52.7018C73.3272 52.7334 73.3529 52.7717 73.3717 52.817C73.398 52.8806 73.4054 52.951 73.3922 53.0182L73.3717 53.0836C73.3524 53.1301 73.3271 53.1675 73.2985 53.1959L73.2955 53.1979L69.8971 56.5973C69.8287 56.6657 69.7392 56.6998 69.649 56.6998C69.5591 56.6997 69.4703 56.6656 69.402 56.5973C69.265 56.4602 69.2649 56.2392 69.402 56.1022L71.3512 54.1539L72.2047 53.3004H60.2936C60.0516 53.3033 59.3118 53.3434 58.6168 53.7438C57.8816 54.1673 57.2496 54.9665 57.2496 56.3502V58.0504C57.2495 58.2442 57.0929 58.4 56.899 58.4C56.7054 58.3998 56.5496 58.2441 56.5494 58.0504V56.3502C56.5494 54.8303 57.1675 53.9168 57.9186 53.3678C58.694 52.8012 59.6466 52.6002 60.2994 52.6002H72.2047L69.402 49.7975C69.2649 49.6604 69.2649 49.4395 69.402 49.3024Z" stroke="#040035"/>
<path d="M73.0493 58.5505C73.2431 58.5506 73.3988 58.7065 73.3989 58.9001V60.6003C73.3989 62.1202 72.7818 63.0338 72.0308 63.5828C71.2552 64.1496 70.3018 64.3503 69.6489 64.3503H57.7437L60.5464 67.1531C60.6835 67.2902 60.6835 67.5111 60.5464 67.6482C60.478 67.7164 60.3892 67.7507 60.2993 67.7507C60.2094 67.7507 60.1206 67.7163 60.0522 67.6482L56.6509 64.2468L56.6099 64.197C56.5974 64.1782 56.5864 64.157 56.5767 64.1335C56.5504 64.0699 56.5439 63.9995 56.5571 63.9324L56.5767 63.8669C56.5961 63.8203 56.6221 63.7831 56.6509 63.7546L60.0522 60.3533C60.1894 60.2163 60.4093 60.2162 60.5464 60.3533C60.6835 60.4904 60.6835 60.7113 60.5464 60.8484L58.5972 62.7966L57.7437 63.6501H69.6548C69.8967 63.6472 70.6367 63.607 71.3315 63.2068C72.0667 62.7832 72.6987 61.9841 72.6987 60.6003V58.9001C72.699 58.7064 72.8555 58.5505 73.0493 58.5505Z" stroke="#040035"/>
<defs>
<filter id="filter0_d_0_1" x="2.47955e-05" y="2.47955e-05" width="138.8" height="115.8" filterUnits="userSpaceOnUse" color-interpolation-filters="sRGB">
<feFlood flood-opacity="0" result="BackgroundImageFix"/>
<feColorMatrix in="SourceAlpha" type="matrix" values="0 0 0 0 0 0 0 0 0 0 0 0 0 0 0 0 0 0 127 0" result="hardAlpha"/>
<feOffset dx="4" dy="4"/>
<feGaussianBlur stdDeviation="10.2"/>
<feComposite in2="hardAlpha" operator="out"/>
<feColorMatrix type="matrix" values="0 0 0 0 0 0 0 0 0 0 0 0 0 0 0 0 0 0 0.05 0"/>
<feBlend mode="normal" in2="BackgroundImageFix" result="effect1_dropShadow_0_1"/>
<feBlend mode="normal" in="SourceGraphic" in2="effect1_dropShadow_0_1" result="shape"/>
</filter>
</defs>
</svg>
