<svg width="299" height="92" viewBox="0 0 299 92" fill="none" xmlns="http://www.w3.org/2000/svg">
<path d="M245.352 53.1669V32.5227C245.352 30.69 244.902 29.3241 244.003 28.425C243.104 27.4914 241.773 27.0246 240.009 27.0246H230.154L230.776 22.2007H240.372C243.934 22.2007 246.614 23.0652 248.412 24.7942C250.245 26.4886 251.161 29.0129 251.161 32.3671V48.9136C250.988 49.6397 250.66 50.3659 250.176 51.0921C249.692 51.7837 249.19 52.4753 248.671 53.1669H245.352ZM228.598 53.1669V48.343H255L254.325 53.1669H228.598Z" fill="#F54387"/>
<path d="M217.205 39.7326V22.2007H223.014V39.7326H217.205ZM212.692 27.0246L213.315 22.2007H220.524V27.0246H212.692Z" fill="#F54387"/>
<path d="M202.229 53.1669V32.5227C202.229 30.69 201.78 29.3241 200.88 28.425C199.981 27.4914 198.65 27.0246 196.886 27.0246H186.253L186.927 22.2007H197.25C200.811 22.2007 203.491 23.0652 205.289 24.7942C207.122 26.4886 208.038 29.0129 208.038 32.3671V53.1669H202.229Z" fill="#F54387"/>
<path d="M174.454 53.1669V22.2007H180.263V53.1669H174.454ZM169.941 27.0246L170.564 22.2007H178.292V27.0246H169.941Z" fill="#F54387"/>
<path d="M151.852 53.1669L159.788 26.9727H138.055L138.677 22.2007H166.376L165.909 25.7797L157.661 53.1669H151.852ZM139.455 62.9702V34.1826L145.265 33.8195V62.6072L139.455 62.9702Z" fill="#F54387"/>
<path d="M114.704 22.2004H133.222L132.703 25.7794L123.418 53.1666H117.401L126.427 27.0242H108.895V14.368L114.704 13.7456V22.2004Z" fill="#F54387"/>
<path d="M97.8647 39.7326V22.2007H103.674V39.7326H97.8647ZM93.3521 27.0246L93.9745 22.2007H101.184V27.0246H93.3521Z" fill="#F54387"/>
<path d="M75.2641 53.1669L83.2002 26.9727H61.4668L62.0892 22.2007H89.7876L89.3208 25.7797L81.0735 53.1669H75.2641ZM62.8673 62.9702V34.1826L68.6767 33.8195V62.6072L62.8673 62.9702Z" fill="#F54387"/>
<path d="M65.7794 14.2784L44.8085 5.68576C44.6229 5.60974 44.4097 5.65454 44.2702 5.79868C44.1308 5.94296 44.0933 6.15762 44.1757 6.34056L53.4708 26.9927C53.5546 27.1789 53.7453 27.2937 53.9491 27.2807C53.9931 27.2778 54.0358 27.2692 54.0763 27.2554C54.2229 27.2053 54.3402 27.0873 54.3868 26.9341L55.8209 19.4309C56.0063 18.4604 56.7272 17.6796 57.6799 17.4173L65.762 15.1923C65.952 15.1228 66.0798 14.9436 66.0837 14.7413C66.0874 14.539 65.9666 14.3551 65.7794 14.2784Z" fill="#040035"/>
<path d="M203.159 88.9318V82.6048C203.159 81.9962 203.012 81.545 202.718 81.2512C202.435 80.9469 201.999 80.7948 201.412 80.7948H198.469L198.626 79.5986H201.522C202.54 79.5986 203.306 79.8505 203.82 80.3541C204.344 80.8473 204.607 81.5817 204.607 82.5576V87.893C204.565 88.0819 204.486 88.2603 204.371 88.4282C204.266 88.596 204.145 88.7639 204.009 88.9318H203.159ZM197.996 88.9318V87.7357H205.771L205.598 88.9318H197.996Z" fill="#040035"/>
<path d="M194.741 84.8082V79.5986H196.189V84.8082H194.741ZM193.309 80.7948L193.482 79.5986H195.559V80.7948H193.309Z" fill="#040035"/>
<path d="M190.382 88.9318V82.6048C190.382 81.9962 190.235 81.545 189.941 81.2512C189.658 80.9469 189.228 80.7948 188.651 80.7948H185.409L185.582 79.5986H188.745C189.763 79.5986 190.529 79.8505 191.043 80.3541C191.568 80.8473 191.83 81.5817 191.83 82.5576V88.9318H190.382Z" fill="#040035"/>
<path d="M182.075 88.9318V79.5986H183.523V88.9318H182.075ZM180.643 80.7948L180.816 79.5986H183.02V80.7948H180.643Z" fill="#040035"/>
<path d="M175.34 88.9318L177.859 80.7791H171.185L171.358 79.5986H179.511L179.385 80.5115L176.788 88.9318H175.34ZM171.657 91.9379V83.0612L173.105 82.951V91.8592L171.657 91.9379Z" fill="#040035"/>
<path d="M167.543 88.9318V82.6048C167.543 81.9962 167.397 81.545 167.103 81.2512C166.819 80.9469 166.389 80.7948 165.812 80.7948H162.57L162.743 79.5986H165.907C166.924 79.5986 167.69 79.8505 168.204 80.3541C168.729 80.8473 168.991 81.5817 168.991 82.5576V88.9318H167.543Z" fill="#040035"/>
<path d="M157.244 89.089C155.943 89.089 154.936 88.6483 154.223 87.7669C153.52 86.8751 153.168 85.5635 153.168 83.8322V79.5984H154.616V83.8322C154.616 85.1753 154.847 86.1983 155.309 86.9013C155.77 87.5938 156.405 87.9401 157.213 87.9401C158.084 87.9401 158.766 87.5938 159.259 86.9013C159.752 86.1983 159.999 85.1753 159.999 83.8322C159.999 82.8249 159.862 82.0485 159.59 81.5028C159.317 80.9467 158.845 80.6739 158.173 80.6844C157.942 80.6844 157.722 80.7002 157.512 80.7316C157.313 80.7631 157.103 80.8051 156.882 80.8576V79.6929C157.145 79.6404 157.397 79.5984 157.638 79.567C157.89 79.5355 158.147 79.5197 158.409 79.5197C159.49 79.5093 160.266 79.8817 160.739 80.6372C161.211 81.3822 161.447 82.4472 161.447 83.8322C161.447 85.5635 161.08 86.8751 160.345 87.7669C159.611 88.6483 158.577 89.089 157.244 89.089Z" fill="#040035"/>
<path d="M149.66 84.8082V79.5986H151.108V84.8082H149.66ZM148.228 80.7948L148.401 79.5986H150.478V80.7948H148.228Z" fill="#040035"/>
<path d="M145.356 88.9318V82.6048C145.356 81.9962 145.209 81.545 144.915 81.2512C144.632 80.9469 144.197 80.7948 143.609 80.7948H138.903L139.076 79.5986H143.719C144.737 79.5986 145.503 79.8505 146.017 80.3541C146.542 80.8473 146.804 81.5817 146.804 82.5576V88.9318H145.356ZM139.155 88.9318V83.6278L140.603 83.5176V88.9318H139.155Z" fill="#040035"/>
<path d="M130.629 88.9318V82.6048C130.629 81.9962 130.482 81.545 130.188 81.2512C129.905 80.9469 129.469 80.7948 128.882 80.7948H125.939L126.096 79.5986H128.992C130.01 79.5986 130.776 79.8505 131.29 80.3541C131.815 80.8473 132.077 81.5817 132.077 82.5576V87.893C132.035 88.0819 131.956 88.2603 131.841 88.4282C131.736 88.596 131.615 88.7639 131.479 88.9318H130.629ZM125.467 88.9318V87.7357H133.242L133.068 88.9318H125.467Z" fill="#040035"/>
<path d="M120.115 88.9318L122.633 80.7791H115.959L116.133 79.5986H124.285L124.159 80.5115L121.563 88.9318H120.115ZM116.432 91.9379V83.0612L117.88 82.951V91.8592L116.432 91.9379Z" fill="#040035"/>
<path d="M108.714 79.5986H114.396L114.238 80.5115L111.421 88.9318H109.926L112.68 80.7948H107.266V77.1433L108.714 76.9702V79.5986Z" fill="#040035"/>
<path d="M104.119 84.8082V79.5986H105.567V84.8082H104.119ZM102.687 80.7948L102.86 79.5986H104.938V80.7948H102.687Z" fill="#040035"/>
<path d="M97.3833 88.9318L99.9016 80.7791H93.2283L93.4014 79.5986H101.554L101.428 80.5115L98.8313 88.9318H97.3833ZM93.7004 91.9379V83.0612L95.1484 82.951V91.8592L93.7004 91.9379Z" fill="#040035"/>
</svg>
