<svg width="970" height="904" viewBox="0 0 970 904" fill="none" xmlns="http://www.w3.org/2000/svg">
<path d="M225.527 406.305L558.372 420.989C561.318 421.119 564.031 419.649 565.223 417.281C566.414 414.912 565.841 412.121 563.776 410.236L330.765 197.42C328.664 195.501 325.452 194.918 322.707 195.958C322.114 196.183 321.569 196.473 321.081 196.817C319.312 198.064 318.294 200.016 318.429 202.093L336.728 300.189C339.096 312.877 333.116 325.554 321.308 332.88L221.128 395.036C218.859 396.708 218.006 399.454 218.98 401.949C219.955 404.443 222.555 406.174 225.527 406.305Z" fill="#F54387"/>
<circle cx="381.5" cy="315.5" r="396.35" stroke="#E0E0E0"/>
<circle cx="381.016" cy="310.176" r="483.948" stroke="#E0E0E0"/>
<circle cx="381.5" cy="315.5" r="588" stroke="#E0E0E0"/>
<path d="M771.848 453.351L761.921 441.368C761.834 441.262 761.824 441.106 761.898 440.973C761.971 440.841 762.113 440.76 762.255 440.768L778.326 441.679C778.471 441.687 778.587 441.786 778.616 441.928C778.623 441.959 778.625 441.99 778.623 442.021C778.616 442.133 778.556 442.244 778.459 442.315L773.532 445.249C772.894 445.628 772.49 446.321 772.488 447.036L772.478 453.1C772.465 453.247 772.365 453.381 772.226 453.436C772.086 453.492 771.936 453.458 771.848 453.351Z" fill="#F54387"/>
<path d="M797.696 249.377L779.606 251.379C779.446 251.396 779.287 251.305 779.205 251.148C779.123 250.991 779.134 250.801 779.234 250.667L790.451 235.545C790.552 235.409 790.724 235.36 790.881 235.422C790.915 235.435 790.947 235.453 790.976 235.475C791.082 235.554 791.151 235.683 791.159 235.824L790.859 242.525C790.82 243.392 791.238 244.232 791.936 244.693L797.856 248.601C797.992 248.707 798.058 248.891 798.022 249.063C797.987 249.235 797.857 249.36 797.696 249.377Z" fill="#F9B816"/>
<path d="M557.673 627.31L555.803 611.531C555.786 611.392 555.865 611.252 556.001 611.18C556.138 611.107 556.304 611.116 556.422 611.201L569.699 620.892C569.819 620.979 569.863 621.128 569.81 621.266C569.799 621.296 569.783 621.324 569.764 621.35C569.696 621.442 569.584 621.504 569.46 621.511L563.609 621.295C562.852 621.267 562.121 621.638 561.723 622.25L558.352 627.445C558.26 627.564 558.1 627.623 557.95 627.594C557.8 627.564 557.689 627.451 557.673 627.31Z" fill="#F66E45"/>
<path d="M291.121 759.205L303.128 753.302C303.234 753.249 303.367 753.273 303.463 753.361C303.559 753.449 303.599 753.584 303.563 753.701L299.586 766.959C299.55 767.078 299.444 767.155 299.319 767.151C299.293 767.151 299.266 767.146 299.24 767.138C299.148 767.11 299.067 767.038 299.027 766.942L297.56 762.235C297.37 761.626 296.871 761.149 296.274 761.005L291.204 759.782C291.084 759.743 290.992 759.632 290.974 759.505C290.955 759.377 291.014 759.258 291.121 759.205Z" fill="#F54387"/>
<path d="M123.375 575.294L138.106 568.051C138.237 567.987 138.399 568.016 138.517 568.124C138.635 568.232 138.683 568.397 138.64 568.541L133.761 584.807C133.717 584.953 133.586 585.048 133.434 585.043C133.401 585.042 133.368 585.037 133.337 585.027C133.223 584.992 133.124 584.904 133.075 584.787L131.275 579.011C131.042 578.264 130.43 577.679 129.697 577.502L123.477 576.002C123.329 575.953 123.217 575.818 123.194 575.661C123.172 575.505 123.243 575.359 123.375 575.294Z" fill="#F9B816"/>
<g filter="url(#filter0_d_0_1)">
<rect x="796" y="168" width="98" height="75" rx="5" fill="white"/>
</g>
<g filter="url(#filter1_d_0_1)">
<rect x="563" y="626" width="98" height="75" rx="5" fill="white"/>
</g>
<g filter="url(#filter2_d_0_1)">
<rect x="776" y="447" width="98" height="75" rx="5" fill="white"/>
</g>
<g filter="url(#filter3_d_0_1)">
<rect x="27" y="582" width="98" height="75" rx="5" fill="white"/>
</g>
<path d="M74.0567 608.998C74.4688 608.945 74.8078 609.024 75.0694 609.192C75.3317 609.359 75.5527 609.64 75.6875 610.047C75.8732 610.608 75.8896 611.374 75.7754 612.257C75.6625 613.13 75.4283 614.069 75.1582 614.949L75.0918 615.168L75.2139 615.362C75.6696 616.085 76.1938 616.833 76.7715 617.579C77.2546 618.203 77.7495 618.791 78.2403 619.326L78.3926 619.491L78.6163 619.488C80.4321 619.464 82.0617 619.643 83.0606 620.099L83.252 620.194C83.6707 620.42 83.9336 620.701 84.0684 620.991C84.2009 621.277 84.2268 621.607 84.1114 621.973C83.9625 622.444 83.7171 622.759 83.4288 622.943C83.1423 623.126 82.7709 623.206 82.3155 623.131H82.3145C81.7255 623.034 81.0424 622.688 80.3233 622.17C79.6122 621.657 78.9055 621.006 78.2725 620.353L78.1163 620.192L77.8926 620.201C76.9607 620.241 75.9678 620.331 74.9551 620.474H74.9532C74.2176 620.58 73.5062 620.704 72.836 620.848L72.6192 620.895L72.5079 621.087C72.2702 621.5 72.03 621.89 71.7891 622.255C70.8749 623.637 70.0392 624.506 69.3213 624.914L69.3106 624.921C69.0181 625.097 68.6854 625.194 68.3448 625.203C67.951 625.201 67.5798 625.035 67.2618 624.66L67.2608 624.659L67.1553 624.526C66.9279 624.217 66.8236 623.905 66.8155 623.611C66.8075 623.319 66.8939 623.011 67.1006 622.708L67.1973 622.578C67.6747 621.981 68.6532 621.385 70.209 620.854H70.21C70.7441 620.671 71.3353 620.5 71.9551 620.346L72.169 620.292L72.2745 620.098C72.6693 619.363 73.0545 618.565 73.4151 617.728C73.7449 616.962 74.0351 616.204 74.2784 615.474L74.3506 615.258L74.2354 615.062C73.798 614.318 73.3868 613.527 73.0899 612.76C72.7908 611.987 72.62 611.271 72.6309 610.67C72.6398 610.162 72.7895 609.777 73.0196 609.51C73.2481 609.245 73.5896 609.057 74.0557 608.998H74.0567ZM70.2149 621.574C69.6686 621.769 69.1828 621.977 68.7793 622.197C68.3442 622.435 67.9687 622.704 67.7247 623.009C67.6573 623.093 67.4881 623.296 67.4893 623.577C67.4906 623.855 67.6537 624.069 67.7754 624.211L67.7813 624.219C67.8118 624.253 67.9729 624.462 68.2618 624.507C68.5208 624.547 68.7691 624.442 68.9825 624.323L68.9903 624.318C69.6074 623.96 70.2843 623.216 70.9444 622.276L70.6338 622.059L70.5391 621.489H70.2754L70.2149 621.574ZM80.4102 620.234L80.3887 620.768L80.0967 621.119C80.5306 621.481 80.9475 621.784 81.3321 622.011C81.7101 622.234 82.0871 622.4 82.4375 622.457C82.5225 622.471 82.7968 622.53 83.0508 622.385C83.3049 622.239 83.4123 621.971 83.4766 621.768L83.4756 621.767C83.4937 621.712 83.5791 621.473 83.4297 621.215C83.3204 621.026 83.1245 620.901 82.9463 620.805L82.9415 620.803L82.71 620.694C82.1734 620.47 81.4435 620.329 80.6182 620.252L80.5977 620.234H80.4102ZM74.3868 617.165C74.2516 617.508 74.1339 617.794 74.045 617.999L74.044 618.002C73.8681 618.415 73.6833 618.816 73.4932 619.213L73.0762 620.084L74.0274 619.922C74.3008 619.876 74.5782 619.833 74.8604 619.792L74.8614 619.793C75.3946 619.718 75.9558 619.652 76.5264 619.603L77.4766 619.52L76.8672 618.785C76.6042 618.468 76.3898 618.198 76.2403 618.006L76.2374 618.002L75.8555 617.502C75.7498 617.36 75.6361 617.2 75.5137 617.027L75.6807 616.595H73.9903L74.3868 617.165ZM74.2315 609.673L74.1407 609.684C74.0396 609.696 73.7658 609.725 73.5625 609.937C73.3563 610.152 73.32 610.444 73.3155 610.686V610.687C73.304 611.356 73.5776 612.228 74.0079 613.164L74.6436 614.548L74.9512 613.057C75.0703 612.481 75.1453 611.95 75.1661 611.487C75.1864 611.033 75.1561 610.608 75.0401 610.265C74.997 610.136 74.911 609.893 74.6788 609.759C74.5559 609.688 74.4349 609.671 74.3467 609.669C74.3068 609.668 74.267 609.67 74.2315 609.673Z" stroke="#040035"/>
<path d="M68.957 632.323H70.2197C70.6552 632.323 71.0251 632.156 71.2832 631.876C71.5351 631.602 71.6582 631.245 71.6582 630.892C71.6581 630.481 71.5287 630.104 71.2461 629.832C70.9665 629.563 70.5954 629.452 70.2197 629.452H68.957V632.323ZM68.5371 629.333C68.536 629.293 68.5428 629.253 68.5557 629.218C68.5686 629.182 68.587 629.153 68.6074 629.131C68.6277 629.109 68.6489 629.094 68.6689 629.085C68.6889 629.076 68.7091 629.073 68.7275 629.074L68.7373 629.075H70.4912C70.9231 629.075 71.3284 629.227 71.623 629.515C71.9125 629.797 72.1299 630.242 72.1299 630.896C72.1298 631.474 71.9683 631.926 71.71 632.226C71.4596 632.516 71.0797 632.708 70.5351 632.708H68.957V634.638C68.957 634.821 68.9084 634.895 68.8877 634.918C68.8709 634.936 68.8353 634.963 68.7471 634.963C68.6586 634.963 68.6239 634.936 68.6074 634.918C68.587 634.896 68.5371 634.822 68.5371 634.638V629.333Z" stroke="#040035"/>
<path d="M74.6582 634.059H75.8906C76.5595 634.059 77.1077 633.811 77.4746 633.345C77.8271 632.896 77.9668 632.304 77.9668 631.688C77.9668 631.083 77.8223 630.512 77.4736 630.082C77.1128 629.637 76.5825 629.405 75.9502 629.405H74.6582V634.059ZM74.2773 629.275C74.2763 629.246 74.2811 629.217 74.291 629.19C74.3009 629.164 74.3159 629.142 74.333 629.124C74.3501 629.106 74.3691 629.093 74.3887 629.085C74.4081 629.077 74.4286 629.074 74.4482 629.074H76.1152C76.8673 629.074 77.4351 629.38 77.8232 629.844C78.2192 630.317 78.4443 630.977 78.4443 631.688C78.4443 632.61 78.1496 633.281 77.7314 633.717C77.3116 634.155 76.7369 634.389 76.1152 634.389H74.4482C74.4285 634.389 74.4081 634.386 74.3887 634.378C74.3692 634.37 74.35 634.357 74.333 634.34C74.3158 634.322 74.301 634.299 74.291 634.272C74.2812 634.246 74.2764 634.218 74.2773 634.188V629.275Z" stroke="#040035"/>
<path d="M80.5928 629.336C80.5914 629.293 80.5984 629.25 80.6114 629.213C80.6243 629.175 80.642 629.145 80.6612 629.123C80.6801 629.101 80.6989 629.089 80.7139 629.082C80.7285 629.075 80.7419 629.074 80.753 629.074H82.8565C82.9525 629.074 82.982 629.103 82.9903 629.112C83.0028 629.126 83.0371 629.174 83.0371 629.294C83.0371 629.428 83.0002 629.473 82.9932 629.48C82.9897 629.484 82.9625 629.515 82.8565 629.515H80.9531V631.733H82.6807C82.7815 631.733 82.8099 631.763 82.8155 631.768C82.8249 631.779 82.8604 631.825 82.8604 631.953C82.8603 632.08 82.825 632.126 82.8155 632.137C82.8103 632.142 82.7826 632.173 82.6807 632.173H80.9531V634.638C80.9531 634.826 80.9044 634.903 80.8848 634.926C80.8711 634.941 80.8451 634.963 80.7725 634.963C80.7004 634.963 80.6753 634.942 80.6621 634.927C80.6429 634.905 80.5928 634.828 80.5928 634.638V629.336Z" stroke="#040035"/>
<path d="M81.9629 597.515C82.0158 597.531 82.064 597.56 82.1035 597.6L90.3604 605.883C90.4084 605.931 90.4417 605.992 90.4551 606.06C90.4684 606.127 90.4617 606.197 90.4355 606.261C90.4094 606.324 90.3649 606.377 90.3086 606.415C90.2521 606.453 90.1858 606.473 90.1182 606.473H84.0967L83.8418 606.46C83.252 606.401 82.6976 606.139 82.2744 605.715C81.7906 605.23 81.5176 604.572 81.5166 603.886V598.208H63.4297C62.8335 598.209 62.2623 598.447 61.8418 598.87C61.4215 599.293 61.186 599.866 61.1865 600.462V637.768C61.1872 638.364 61.4241 638.936 61.8457 639.358C62.2671 639.78 62.8385 640.017 63.4346 640.017V640.018H87.5723C88.1677 640.017 88.7385 639.779 89.1592 639.357C89.5799 638.936 89.8157 638.363 89.8164 637.768V609.524C89.8164 609.432 89.8535 609.344 89.918 609.279C89.982 609.215 90.0683 609.179 90.1582 609.179C90.2486 609.179 90.3352 609.216 90.3994 609.28C90.4636 609.345 90.5 609.433 90.5 609.524V637.763L90.4854 638.053C90.418 638.726 90.1209 639.359 89.6396 639.842C89.0898 640.393 88.3444 640.703 87.5674 640.704H63.4326C62.6556 640.703 61.9102 640.393 61.3604 639.842C60.8106 639.291 60.5011 638.543 60.5 637.763V600.459C60.501 599.679 60.8107 598.931 61.3604 598.38C61.91 597.829 62.6548 597.518 63.4316 597.517L63.4307 597.516L81.7051 597.515H81.752L81.7988 597.506C81.8533 597.495 81.9099 597.498 81.9629 597.515ZM82.2031 603.883C82.2039 604.385 82.4033 604.866 82.7578 605.222C83.1125 605.577 83.5937 605.778 84.0957 605.778H84.0967L88.0791 605.774L89.2822 605.773L88.4326 604.922L83.0566 599.532L82.2031 598.676V603.883Z" stroke="#040035"/>
<g filter="url(#filter4_d_0_1)">
<rect x="196" y="763" width="98" height="75" rx="5" fill="white"/>
</g>
<mask id="path-20-inside-1_0_1" fill="white">
<path fill-rule="evenodd" clip-rule="evenodd" d="M831.663 219.217L829.981 220.899L831.663 222.581C831.906 222.824 831.906 223.219 831.663 223.463C831.541 223.584 831.381 223.645 831.222 223.645C831.063 223.645 830.903 223.584 830.781 223.463L829.099 221.781L827.419 223.463C827.175 223.706 826.78 223.706 826.537 223.463C826.293 223.219 826.293 222.824 826.537 222.581L828.218 220.899L826.537 219.217C826.293 218.974 826.293 218.579 826.537 218.335C826.78 218.092 827.175 218.092 827.419 218.335L829.099 220.017L830.781 218.335C831.024 218.092 831.42 218.092 831.663 218.335C831.906 218.579 831.906 218.974 831.663 219.217ZM861.267 183H860.534C857.341 183.19 854.801 185.849 854.801 189.09C854.801 192.454 857.537 195.191 860.901 195.191C864.264 195.191 867 192.454 867 189.09C867 185.849 864.46 183.19 861.267 183ZM829.099 225.753C831.775 225.753 833.952 223.575 833.952 220.899C833.952 218.222 831.775 216.045 829.099 216.045C826.424 216.045 824.247 218.222 824.247 220.899C824.247 223.575 826.424 225.753 829.099 225.753ZM829.099 214.798C825.736 214.798 823 217.535 823 220.899C823 224.263 825.736 227 829.099 227C832.463 227 835.199 224.263 835.199 220.899C835.199 217.535 832.463 214.798 829.099 214.798ZM862.958 196.927C864.103 199.47 864.682 202.185 864.682 204.994C864.682 210.253 862.635 215.197 858.917 218.915C855.2 222.634 850.258 224.681 845 224.681C842.808 224.681 840.67 224.327 838.624 223.625L839.781 225.63C839.953 225.929 839.851 226.31 839.553 226.482C839.455 226.539 839.348 226.566 839.242 226.566C839.026 226.566 838.817 226.454 838.701 226.254L836.65 222.701C836.567 222.557 836.545 222.387 836.587 222.227C836.63 222.067 836.735 221.931 836.878 221.849L840.431 219.797C840.729 219.624 841.11 219.727 841.283 220.025C841.455 220.323 841.353 220.705 841.054 220.877L838.601 222.294C840.645 223.051 842.794 223.434 845 223.434C855.166 223.434 863.436 215.162 863.436 204.994C863.436 202.362 862.892 199.82 861.821 197.438C861.68 197.124 861.82 196.755 862.134 196.614C862.448 196.472 862.817 196.612 862.958 196.927ZM827.042 213.062C827.146 213.294 827.373 213.43 827.611 213.43C827.697 213.43 827.783 213.413 827.866 213.375C828.18 213.234 828.32 212.865 828.179 212.551C827.108 210.169 826.565 207.627 826.565 204.994C826.565 194.827 834.835 186.555 845 186.555C847.206 186.555 849.355 186.938 851.399 187.695L848.946 189.112C848.647 189.284 848.545 189.666 848.718 189.964C848.89 190.262 849.271 190.364 849.569 190.192L853.122 188.14C853.42 187.968 853.522 187.587 853.35 187.288L851.299 183.735C851.127 183.437 850.745 183.334 850.448 183.506C850.149 183.679 850.047 184.06 850.219 184.358L851.377 186.363C849.33 185.662 847.192 185.307 845 185.307C839.743 185.307 834.8 187.355 831.083 191.073C827.365 194.792 825.317 199.736 825.317 204.994C825.317 207.804 825.898 210.519 827.042 213.062ZM845 200.015C842.255 200.015 840.022 202.249 840.022 204.994C840.022 207.74 842.255 209.974 845 209.974C847.745 209.974 849.978 207.74 849.978 204.994C849.978 202.249 847.745 200.015 845 200.015ZM845 211.221C848.433 211.221 851.225 208.428 851.225 204.994C851.225 201.561 848.433 198.767 845 198.767C841.567 198.767 838.775 201.561 838.775 204.994C838.775 208.428 841.567 211.221 845 211.221ZM836.373 211.773C837.305 210.841 837.571 209.502 837.065 208.282C836.56 207.061 835.426 206.303 834.107 206.303C834.029 206.303 833.964 206.239 833.964 206.16V203.828C833.964 203.75 834.029 203.686 834.107 203.686C835.426 203.686 836.56 202.927 837.065 201.707C837.571 200.486 837.305 199.148 836.373 198.215C836.317 198.159 836.317 198.069 836.373 198.014L838.022 196.364C838.076 196.309 838.167 196.309 838.223 196.364C839.155 197.298 840.493 197.563 841.713 197.057C842.934 196.552 843.692 195.418 843.692 194.098C843.692 194.02 843.756 193.956 843.834 193.956H846.166C846.244 193.956 846.308 194.02 846.308 194.098C846.308 195.418 847.067 196.552 848.287 197.057C849.507 197.563 850.845 197.297 851.777 196.364C851.833 196.309 851.923 196.309 851.979 196.364L853.628 198.014C853.684 198.069 853.684 198.16 853.628 198.215C852.695 199.148 852.429 200.486 852.935 201.707C853.44 202.927 854.574 203.686 855.893 203.686C855.972 203.686 856.036 203.75 856.036 203.828V206.16C856.036 206.239 855.972 206.303 855.893 206.303C854.574 206.303 853.44 207.061 852.935 208.282C852.429 209.503 852.695 210.841 853.628 211.773C853.662 211.808 853.669 211.847 853.669 211.874C853.669 211.901 853.662 211.941 853.628 211.975L851.979 213.624C851.923 213.68 851.833 213.68 851.777 213.624C850.845 212.691 849.507 212.426 848.287 212.931C847.067 213.437 846.308 214.571 846.308 215.89C846.308 215.968 846.244 216.033 846.166 216.033H843.834C843.756 216.033 843.692 215.968 843.692 215.89C843.692 214.569 842.935 213.435 841.714 212.93C841.305 212.76 840.883 212.677 840.467 212.677C839.642 212.677 838.844 213.003 838.223 213.624C838.167 213.68 838.077 213.68 838.022 213.624L836.373 211.975C836.317 211.919 836.317 211.829 836.373 211.773ZM838.122 214.913C837.751 214.913 837.401 214.768 837.14 214.506L835.491 212.857C834.949 212.315 834.949 211.433 835.491 210.891C836.172 210.211 836.155 209.344 835.913 208.759C835.671 208.175 835.07 207.55 834.107 207.55C833.341 207.55 832.717 206.927 832.717 206.16V203.828C832.717 203.062 833.341 202.439 834.107 202.439C835.07 202.439 835.671 201.814 835.913 201.229C836.155 200.645 836.172 199.778 835.491 199.097C834.949 198.555 834.949 197.674 835.491 197.131L837.14 195.482C837.681 194.941 838.563 194.941 839.104 195.482C839.785 196.163 840.651 196.147 841.236 195.905C841.82 195.663 842.444 195.061 842.444 194.098C842.444 193.332 843.068 192.709 843.834 192.709H846.166C846.932 192.709 847.555 193.332 847.555 194.098C847.555 195.061 848.18 195.663 848.764 195.905C849.349 196.147 850.215 196.163 850.896 195.482C851.437 194.941 852.319 194.941 852.86 195.482L854.509 197.131C854.772 197.394 854.916 197.743 854.916 198.115C854.916 198.486 854.772 198.834 854.509 199.097C853.829 199.778 853.845 200.645 854.087 201.229C854.329 201.814 854.93 202.438 855.893 202.438C856.659 202.438 857.283 203.062 857.283 203.828V206.16C857.283 206.927 856.659 207.55 855.893 207.55C854.93 207.55 854.329 208.175 854.087 208.759C853.845 209.343 853.829 210.211 854.509 210.891C854.772 211.154 854.916 211.503 854.916 211.874C854.916 212.245 854.772 212.594 854.509 212.857L852.86 214.506C852.599 214.768 852.249 214.913 851.878 214.913C851.508 214.913 851.158 214.768 850.896 214.506C850.215 213.826 849.349 213.841 848.764 214.084C848.18 214.326 847.555 214.928 847.555 215.89C847.555 216.657 846.932 217.28 846.166 217.28H843.834C843.068 217.28 842.444 216.657 842.444 215.89C842.444 214.926 841.821 214.324 841.237 214.082C840.653 213.84 839.786 213.824 839.104 214.506C838.842 214.768 838.493 214.913 838.122 214.913ZM863.887 187.292C864.104 187.56 864.063 187.952 863.795 188.169L859.811 191.4C859.699 191.491 859.56 191.539 859.418 191.539C859.387 191.539 859.356 191.537 859.325 191.532C859.152 191.506 858.998 191.408 858.9 191.263L857.515 189.2C857.323 188.914 857.399 188.527 857.685 188.335C857.971 188.143 858.359 188.219 858.551 188.505L859.556 190.002L863.01 187.2C863.278 186.983 863.671 187.025 863.887 187.292ZM860.901 193.943C858.225 193.943 856.048 191.766 856.048 189.09C856.048 186.413 858.225 184.236 860.901 184.236C863.576 184.236 865.753 186.413 865.753 189.09C865.753 191.766 863.576 193.943 860.901 193.943Z"/>
</mask>
<path fill-rule="evenodd" clip-rule="evenodd" d="M831.663 219.217L829.981 220.899L831.663 222.581C831.906 222.824 831.906 223.219 831.663 223.463C831.541 223.584 831.381 223.645 831.222 223.645C831.063 223.645 830.903 223.584 830.781 223.463L829.099 221.781L827.419 223.463C827.175 223.706 826.78 223.706 826.537 223.463C826.293 223.219 826.293 222.824 826.537 222.581L828.218 220.899L826.537 219.217C826.293 218.974 826.293 218.579 826.537 218.335C826.78 218.092 827.175 218.092 827.419 218.335L829.099 220.017L830.781 218.335C831.024 218.092 831.42 218.092 831.663 218.335C831.906 218.579 831.906 218.974 831.663 219.217ZM861.267 183H860.534C857.341 183.19 854.801 185.849 854.801 189.09C854.801 192.454 857.537 195.191 860.901 195.191C864.264 195.191 867 192.454 867 189.09C867 185.849 864.46 183.19 861.267 183ZM829.099 225.753C831.775 225.753 833.952 223.575 833.952 220.899C833.952 218.222 831.775 216.045 829.099 216.045C826.424 216.045 824.247 218.222 824.247 220.899C824.247 223.575 826.424 225.753 829.099 225.753ZM829.099 214.798C825.736 214.798 823 217.535 823 220.899C823 224.263 825.736 227 829.099 227C832.463 227 835.199 224.263 835.199 220.899C835.199 217.535 832.463 214.798 829.099 214.798ZM862.958 196.927C864.103 199.47 864.682 202.185 864.682 204.994C864.682 210.253 862.635 215.197 858.917 218.915C855.2 222.634 850.258 224.681 845 224.681C842.808 224.681 840.67 224.327 838.624 223.625L839.781 225.63C839.953 225.929 839.851 226.31 839.553 226.482C839.455 226.539 839.348 226.566 839.242 226.566C839.026 226.566 838.817 226.454 838.701 226.254L836.65 222.701C836.567 222.557 836.545 222.387 836.587 222.227C836.63 222.067 836.735 221.931 836.878 221.849L840.431 219.797C840.729 219.624 841.11 219.727 841.283 220.025C841.455 220.323 841.353 220.705 841.054 220.877L838.601 222.294C840.645 223.051 842.794 223.434 845 223.434C855.166 223.434 863.436 215.162 863.436 204.994C863.436 202.362 862.892 199.82 861.821 197.438C861.68 197.124 861.82 196.755 862.134 196.614C862.448 196.472 862.817 196.612 862.958 196.927ZM827.042 213.062C827.146 213.294 827.373 213.43 827.611 213.43C827.697 213.43 827.783 213.413 827.866 213.375C828.18 213.234 828.32 212.865 828.179 212.551C827.108 210.169 826.565 207.627 826.565 204.994C826.565 194.827 834.835 186.555 845 186.555C847.206 186.555 849.355 186.938 851.399 187.695L848.946 189.112C848.647 189.284 848.545 189.666 848.718 189.964C848.89 190.262 849.271 190.364 849.569 190.192L853.122 188.14C853.42 187.968 853.522 187.587 853.35 187.288L851.299 183.735C851.127 183.437 850.745 183.334 850.448 183.506C850.149 183.679 850.047 184.06 850.219 184.358L851.377 186.363C849.33 185.662 847.192 185.307 845 185.307C839.743 185.307 834.8 187.355 831.083 191.073C827.365 194.792 825.317 199.736 825.317 204.994C825.317 207.804 825.898 210.519 827.042 213.062ZM845 200.015C842.255 200.015 840.022 202.249 840.022 204.994C840.022 207.74 842.255 209.974 845 209.974C847.745 209.974 849.978 207.74 849.978 204.994C849.978 202.249 847.745 200.015 845 200.015ZM845 211.221C848.433 211.221 851.225 208.428 851.225 204.994C851.225 201.561 848.433 198.767 845 198.767C841.567 198.767 838.775 201.561 838.775 204.994C838.775 208.428 841.567 211.221 845 211.221ZM836.373 211.773C837.305 210.841 837.571 209.502 837.065 208.282C836.56 207.061 835.426 206.303 834.107 206.303C834.029 206.303 833.964 206.239 833.964 206.16V203.828C833.964 203.75 834.029 203.686 834.107 203.686C835.426 203.686 836.56 202.927 837.065 201.707C837.571 200.486 837.305 199.148 836.373 198.215C836.317 198.159 836.317 198.069 836.373 198.014L838.022 196.364C838.076 196.309 838.167 196.309 838.223 196.364C839.155 197.298 840.493 197.563 841.713 197.057C842.934 196.552 843.692 195.418 843.692 194.098C843.692 194.02 843.756 193.956 843.834 193.956H846.166C846.244 193.956 846.308 194.02 846.308 194.098C846.308 195.418 847.067 196.552 848.287 197.057C849.507 197.563 850.845 197.297 851.777 196.364C851.833 196.309 851.923 196.309 851.979 196.364L853.628 198.014C853.684 198.069 853.684 198.16 853.628 198.215C852.695 199.148 852.429 200.486 852.935 201.707C853.44 202.927 854.574 203.686 855.893 203.686C855.972 203.686 856.036 203.75 856.036 203.828V206.16C856.036 206.239 855.972 206.303 855.893 206.303C854.574 206.303 853.44 207.061 852.935 208.282C852.429 209.503 852.695 210.841 853.628 211.773C853.662 211.808 853.669 211.847 853.669 211.874C853.669 211.901 853.662 211.941 853.628 211.975L851.979 213.624C851.923 213.68 851.833 213.68 851.777 213.624C850.845 212.691 849.507 212.426 848.287 212.931C847.067 213.437 846.308 214.571 846.308 215.89C846.308 215.968 846.244 216.033 846.166 216.033H843.834C843.756 216.033 843.692 215.968 843.692 215.89C843.692 214.569 842.935 213.435 841.714 212.93C841.305 212.76 840.883 212.677 840.467 212.677C839.642 212.677 838.844 213.003 838.223 213.624C838.167 213.68 838.077 213.68 838.022 213.624L836.373 211.975C836.317 211.919 836.317 211.829 836.373 211.773ZM838.122 214.913C837.751 214.913 837.401 214.768 837.14 214.506L835.491 212.857C834.949 212.315 834.949 211.433 835.491 210.891C836.172 210.211 836.155 209.344 835.913 208.759C835.671 208.175 835.07 207.55 834.107 207.55C833.341 207.55 832.717 206.927 832.717 206.16V203.828C832.717 203.062 833.341 202.439 834.107 202.439C835.07 202.439 835.671 201.814 835.913 201.229C836.155 200.645 836.172 199.778 835.491 199.097C834.949 198.555 834.949 197.674 835.491 197.131L837.14 195.482C837.681 194.941 838.563 194.941 839.104 195.482C839.785 196.163 840.651 196.147 841.236 195.905C841.82 195.663 842.444 195.061 842.444 194.098C842.444 193.332 843.068 192.709 843.834 192.709H846.166C846.932 192.709 847.555 193.332 847.555 194.098C847.555 195.061 848.18 195.663 848.764 195.905C849.349 196.147 850.215 196.163 850.896 195.482C851.437 194.941 852.319 194.941 852.86 195.482L854.509 197.131C854.772 197.394 854.916 197.743 854.916 198.115C854.916 198.486 854.772 198.834 854.509 199.097C853.829 199.778 853.845 200.645 854.087 201.229C854.329 201.814 854.93 202.438 855.893 202.438C856.659 202.438 857.283 203.062 857.283 203.828V206.16C857.283 206.927 856.659 207.55 855.893 207.55C854.93 207.55 854.329 208.175 854.087 208.759C853.845 209.343 853.829 210.211 854.509 210.891C854.772 211.154 854.916 211.503 854.916 211.874C854.916 212.245 854.772 212.594 854.509 212.857L852.86 214.506C852.599 214.768 852.249 214.913 851.878 214.913C851.508 214.913 851.158 214.768 850.896 214.506C850.215 213.826 849.349 213.841 848.764 214.084C848.18 214.326 847.555 214.928 847.555 215.89C847.555 216.657 846.932 217.28 846.166 217.28H843.834C843.068 217.28 842.444 216.657 842.444 215.89C842.444 214.926 841.821 214.324 841.237 214.082C840.653 213.84 839.786 213.824 839.104 214.506C838.842 214.768 838.493 214.913 838.122 214.913ZM863.887 187.292C864.104 187.56 864.063 187.952 863.795 188.169L859.811 191.4C859.699 191.491 859.56 191.539 859.418 191.539C859.387 191.539 859.356 191.537 859.325 191.532C859.152 191.506 858.998 191.408 858.9 191.263L857.515 189.2C857.323 188.914 857.399 188.527 857.685 188.335C857.971 188.143 858.359 188.219 858.551 188.505L859.556 190.002L863.01 187.2C863.278 186.983 863.671 187.025 863.887 187.292ZM860.901 193.943C858.225 193.943 856.048 191.766 856.048 189.09C856.048 186.413 858.225 184.236 860.901 184.236C863.576 184.236 865.753 186.413 865.753 189.09C865.753 191.766 863.576 193.943 860.901 193.943Z" stroke="#040035" stroke-width="2" mask="url(#path-20-inside-1_0_1)"/>
<path d="M791 468H859C860.104 468 861 468.896 861 470V498C861 499.104 860.104 500 859 500H791C789.895 500 789 499.104 789 498V470C789 468.896 789.895 468 791 468Z" stroke="#040035" stroke-width="2"/>
<path d="M846.671 476.865C846.931 476.346 847.563 476.136 848.082 476.395C848.601 476.655 848.811 477.286 848.552 477.806L845.796 483.317L845.685 483.541L845.796 483.765L848.552 489.276C848.811 489.796 848.601 490.427 848.082 490.686C847.563 490.946 846.931 490.736 846.671 490.217L844.956 486.786L844.509 485.892L844.062 486.786L842.347 490.217C842.087 490.736 841.455 490.946 840.936 490.686C840.417 490.427 840.206 489.796 840.466 489.276L843.222 483.765L843.333 483.541L843.222 483.317L840.466 477.806C840.207 477.286 840.417 476.655 840.936 476.395C841.455 476.136 842.087 476.346 842.347 476.865L844.062 480.296L844.509 481.19L844.956 480.296L846.671 476.865Z" fill="#040035" stroke="#040035"/>
<path d="M832.098 476.284H835.2C835.781 476.284 836.251 476.755 836.251 477.336C836.251 477.916 835.78 478.387 835.2 478.387H832.098C830.965 478.387 830.046 479.306 830.046 480.438V486.644C830.046 487.776 830.965 488.695 832.098 488.695H835.2C835.781 488.695 836.251 489.166 836.251 489.746C836.251 490.327 835.781 490.798 835.2 490.798H832.098C829.804 490.798 827.943 488.938 827.943 486.644V480.438C827.943 478.144 829.804 476.284 832.098 476.284Z" fill="#040035" stroke="#040035"/>
<path d="M819.688 476.284C821.982 476.284 823.841 478.144 823.841 480.438V486.644C823.841 488.938 821.982 490.798 819.688 490.798C817.393 490.798 815.533 488.938 815.533 486.644V480.438C815.533 478.144 817.393 476.284 819.688 476.284ZM819.688 478.387C818.555 478.387 817.636 479.306 817.636 480.438V486.644C817.636 487.776 818.555 488.695 819.688 488.695C820.82 488.695 821.738 487.776 821.738 486.644V480.438C821.738 479.306 820.82 478.387 819.688 478.387Z" fill="#040035" stroke="#040035"/>
<path d="M804.174 476.285H807.276C809.57 476.285 811.43 478.145 811.43 480.439V486.645C811.43 488.939 809.57 490.799 807.276 490.799H804.174C803.593 490.799 803.122 490.328 803.122 489.747V477.337C803.122 476.756 803.593 476.285 804.174 476.285ZM805.225 488.696H807.276C808.409 488.696 809.327 487.777 809.327 486.645V480.439C809.327 479.307 808.409 478.388 807.276 478.388H805.225V488.696Z" fill="#040035" stroke="#040035"/>
<path d="M599.25 643.5H617.1C617.194 643.5 617.282 643.537 617.347 643.602L628.396 654.651C628.428 654.683 628.454 654.721 628.473 654.766V654.767C628.49 654.809 628.5 654.855 628.5 654.9V679.55C628.5 681.617 626.817 683.3 624.75 683.3H599.25C598.597 683.3 597.645 683.099 596.869 682.532C596.118 681.983 595.5 681.07 595.5 679.55V647.25C595.5 645.183 597.183 643.5 599.25 643.5ZM599.25 644.2C597.568 644.2 596.2 645.568 596.2 647.25V679.55C596.2 680.934 596.832 681.733 597.568 682.156C598.264 682.556 599.005 682.597 599.249 682.6H624.75C626.432 682.6 627.8 681.232 627.8 679.55V655.25H620.5C618.433 655.25 616.75 653.567 616.75 651.5V648.95C616.75 648.757 616.906 648.6 617.1 648.6C617.293 648.6 617.45 648.757 617.45 648.95V651.5C617.45 653.182 618.818 654.55 620.5 654.55H627.306L626.451 653.696L616.955 644.2H599.25Z" stroke="#040035"/>
<path d="M616.002 658.902C616.139 658.765 616.36 658.765 616.497 658.902L619.896 662.302C619.927 662.333 619.953 662.372 619.972 662.417C619.998 662.481 620.005 662.551 619.992 662.618L619.972 662.684C619.952 662.73 619.927 662.767 619.898 662.796L619.896 662.798L616.497 666.197C616.429 666.266 616.339 666.3 616.249 666.3C616.159 666.3 616.07 666.266 616.002 666.197C615.865 666.06 615.865 665.839 616.002 665.702L617.951 663.754L618.805 662.9H606.894C606.652 662.903 605.912 662.943 605.217 663.344C604.482 663.767 603.85 664.566 603.85 665.95V667.65C603.849 667.844 603.693 668 603.499 668C603.305 668 603.15 667.844 603.149 667.65V665.95C603.149 664.43 603.767 663.517 604.519 662.968C605.294 662.401 606.247 662.2 606.899 662.2H618.805L616.002 659.397C615.865 659.26 615.865 659.039 616.002 658.902Z" stroke="#040035"/>
<path d="M619.649 668.151C619.843 668.151 619.999 668.306 619.999 668.5V670.2C619.999 671.72 619.382 672.634 618.631 673.183C617.855 673.75 616.902 673.95 616.249 673.95H604.344L607.146 676.753C607.283 676.89 607.283 677.111 607.146 677.248C607.078 677.316 606.989 677.351 606.899 677.351C606.809 677.351 606.721 677.316 606.652 677.248L603.251 673.847L603.21 673.797C603.197 673.778 603.186 673.757 603.177 673.734C603.15 673.67 603.144 673.599 603.157 673.532L603.177 673.467C603.196 673.42 603.222 673.383 603.251 673.355L606.652 669.953C606.789 669.816 607.009 669.816 607.146 669.953C607.283 670.09 607.283 670.311 607.146 670.448L605.197 672.397L604.344 673.25H616.255C616.497 673.247 617.237 673.207 617.932 672.807C618.667 672.383 619.299 671.584 619.299 670.2V668.5C619.299 668.306 619.455 668.151 619.649 668.151Z" stroke="#040035"/>
<path d="M266.988 795.468C267.016 795.467 267.043 795.472 267.068 795.481C267.094 795.491 267.117 795.504 267.136 795.522C267.146 795.531 267.154 795.541 267.162 795.551L267.182 795.584C267.192 795.608 267.199 795.633 267.199 795.659C267.199 795.684 267.194 795.71 267.184 795.734L267.174 795.758L267.166 795.783C267.165 795.787 267.164 795.791 267.163 795.794L260.641 814.035L260.639 814.04C260.607 814.135 260.544 814.217 260.46 814.276C260.375 814.334 260.273 814.364 260.168 814.361C260.143 814.361 260.118 814.359 260.093 814.354L260.018 814.334L251.437 811.325L250.938 811.15L250.79 811.658L249.62 815.693L250.462 816.178L252.642 813.903C252.678 813.865 252.73 813.842 252.785 813.841C252.841 813.839 252.893 813.86 252.932 813.897C252.971 813.933 252.992 813.981 252.994 814.03C252.995 814.08 252.976 814.13 252.94 814.167L248.839 818.445L248.837 818.447C248.655 818.639 248.43 818.673 248.225 818.616C248.119 818.587 248.031 818.537 247.972 818.483C247.916 818.433 247.905 818.398 247.904 818.394L247.902 818.383L247.9 818.372L246.195 810.341L246.129 810.029L245.819 809.957L240.008 808.609C239.908 808.586 239.82 808.533 239.754 808.458C239.688 808.384 239.648 808.292 239.638 808.195C239.628 808.099 239.649 808.001 239.699 807.916C239.748 807.832 239.823 807.763 239.915 807.721L266.91 795.488C266.934 795.476 266.961 795.469 266.988 795.468ZM263.156 797.618L241.206 807.568L239.862 808.176L241.3 808.51L246.036 809.609L246.256 809.661L246.441 809.528L252.349 805.276C252.37 805.261 252.395 805.25 252.421 805.243C252.448 805.237 252.475 805.236 252.502 805.241C252.53 805.245 252.556 805.254 252.579 805.268C252.602 805.282 252.621 805.3 252.636 805.321C252.651 805.341 252.662 805.364 252.668 805.388C252.674 805.412 252.675 805.438 252.671 805.462C252.667 805.487 252.658 805.51 252.645 805.532C252.631 805.553 252.614 805.573 252.592 805.588L246.791 809.762L246.527 809.953L246.594 810.272L247.945 816.639L248.915 816.675L250.648 810.699L250.657 810.67L250.661 810.64C250.674 810.563 250.706 810.491 250.754 810.429L250.809 810.372L250.815 810.367L263.702 798.441L263.156 797.618ZM265.035 797.749L251.592 810.188L250.984 810.752L251.766 811.027L259.759 813.829L260.228 813.994L260.396 813.526L265.844 798.284L265.035 797.749Z" stroke="#040035"/>
<path d="M243.628 812.456C243.654 812.459 243.679 812.467 243.701 812.479C243.723 812.491 243.743 812.509 243.759 812.528C243.791 812.568 243.805 812.619 243.799 812.669C243.793 812.72 243.769 812.766 243.728 812.798L232.532 821.678L232.528 821.681C232.508 821.697 232.485 821.709 232.461 821.716C232.436 821.724 232.409 821.726 232.383 821.723C232.358 821.72 232.333 821.713 232.311 821.7C232.288 821.688 232.267 821.671 232.251 821.651C232.236 821.631 232.224 821.609 232.217 821.585C232.21 821.56 232.208 821.534 232.211 821.509C232.214 821.484 232.222 821.46 232.235 821.437C232.241 821.427 232.248 821.416 232.256 821.407L232.287 821.377L243.484 812.497C243.504 812.482 243.527 812.469 243.552 812.462C243.577 812.455 243.603 812.454 243.628 812.456Z" stroke="#040035"/>
<path d="M244.388 816.886C244.419 816.888 244.448 816.896 244.473 816.909C244.498 816.921 244.518 816.937 244.532 816.952C244.545 816.967 244.553 816.982 244.558 816.995C244.562 817.008 244.563 817.021 244.562 817.032C244.56 817.044 244.557 817.057 244.549 817.071L244.509 817.114L244.505 817.117L240.528 820.135L240.523 820.138C240.504 820.152 240.481 820.165 240.453 820.173C240.425 820.181 240.394 820.185 240.363 820.182C240.332 820.18 240.303 820.172 240.278 820.159C240.253 820.147 240.233 820.131 240.219 820.116C240.206 820.101 240.198 820.085 240.193 820.072C240.189 820.059 240.187 820.047 240.188 820.036C240.19 820.024 240.194 820.011 240.202 819.997C240.21 819.983 240.223 819.968 240.241 819.954L240.246 819.951L244.223 816.933L244.227 816.93C244.246 816.916 244.27 816.903 244.298 816.895C244.326 816.887 244.357 816.883 244.388 816.886Z" stroke="#040035"/>
<path d="M250.862 792.375C250.883 792.377 250.905 792.384 250.926 792.395C250.947 792.407 250.968 792.424 250.986 792.448L254.753 797.242C254.771 797.265 254.786 797.294 254.795 797.327C254.805 797.36 254.809 797.396 254.806 797.432C254.803 797.467 254.794 797.502 254.779 797.532C254.764 797.561 254.745 797.586 254.724 797.604C254.703 797.623 254.681 797.635 254.66 797.642C254.638 797.65 254.616 797.652 254.595 797.65C254.574 797.648 254.553 797.642 254.532 797.63C254.511 797.618 254.489 797.601 254.471 797.578L250.705 792.784C250.687 792.76 250.671 792.732 250.662 792.699C250.652 792.665 250.648 792.629 250.651 792.594C250.654 792.558 250.664 792.525 250.679 792.495C250.694 792.465 250.712 792.44 250.733 792.421C250.754 792.402 250.777 792.39 250.798 792.383C250.82 792.376 250.841 792.373 250.862 792.375Z" stroke="#040035"/>
<path d="M259.627 778.511C260.359 778.532 261.052 778.84 261.555 779.365C261.994 779.825 262.256 780.418 262.301 781.041L262.308 781.31L261.945 794.366C261.945 794.391 261.939 794.416 261.929 794.439C261.919 794.462 261.904 794.484 261.885 794.502C261.865 794.52 261.842 794.535 261.817 794.544C261.791 794.554 261.764 794.56 261.736 794.559C261.709 794.558 261.682 794.551 261.657 794.54C261.632 794.529 261.61 794.513 261.592 794.494C261.574 794.475 261.56 794.452 261.551 794.429C261.542 794.405 261.537 794.38 261.538 794.355L261.875 782.225L261.079 782.735L245.697 792.607C244.785 793.187 243.716 793.481 242.631 793.451C241.546 793.421 240.495 793.068 239.617 792.438L224.806 781.728L224.04 781.174L223.486 801.118C223.474 801.546 223.582 801.968 223.798 802.338L224.133 802.916L224.593 802.431L234.243 792.244C234.27 792.215 234.306 792.194 234.346 792.185L234.387 792.179C234.442 792.178 234.495 792.198 234.535 792.234C234.574 792.27 234.596 792.32 234.597 792.37C234.599 792.42 234.581 792.47 234.545 792.508L224.982 802.602L224.412 803.205L225.211 803.428C225.393 803.478 225.58 803.507 225.769 803.513L239.569 803.896C239.597 803.897 239.624 803.902 239.649 803.913C239.674 803.924 239.697 803.94 239.715 803.959C239.733 803.978 239.747 804 239.756 804.023C239.765 804.047 239.77 804.072 239.77 804.097C239.769 804.122 239.763 804.148 239.752 804.171C239.742 804.194 239.727 804.215 239.707 804.233C239.688 804.251 239.664 804.266 239.639 804.275C239.613 804.284 239.586 804.289 239.558 804.288L225.76 803.904C225.249 803.891 224.751 803.736 224.325 803.458L224.231 803.397L224.121 803.382L224.066 803.366C224.049 803.358 224.033 803.349 224.019 803.337C223.99 803.313 223.969 803.282 223.958 803.248L223.921 803.142L223.842 803.061L223.664 802.857C223.496 802.646 223.36 802.41 223.262 802.158C223.131 801.823 223.069 801.465 223.079 801.106L223.659 780.236C223.679 779.516 223.988 778.833 224.518 778.336C224.983 777.902 225.584 777.641 226.218 777.596L226.492 777.59L259.627 778.511ZM226.48 777.982C225.859 777.965 225.255 778.193 224.803 778.617C224.349 779.041 224.084 779.627 224.066 780.246L224.053 780.694L224.268 780.848L239.861 792.124L239.862 792.125C240.673 792.707 241.642 793.033 242.642 793.061C243.642 793.089 244.627 792.817 245.469 792.281L245.47 792.28L261.666 781.887L261.888 781.745L261.901 781.297L261.895 781.066C261.856 780.53 261.631 780.022 261.256 779.63C260.828 779.181 260.238 778.92 259.617 778.902L226.48 777.982Z" stroke="#040035"/>
<defs>
<filter id="filter0_d_0_1" x="779.6" y="151.6" width="138.8" height="115.8" filterUnits="userSpaceOnUse" color-interpolation-filters="sRGB">
<feFlood flood-opacity="0" result="BackgroundImageFix"/>
<feColorMatrix in="SourceAlpha" type="matrix" values="0 0 0 0 0 0 0 0 0 0 0 0 0 0 0 0 0 0 127 0" result="hardAlpha"/>
<feOffset dx="4" dy="4"/>
<feGaussianBlur stdDeviation="10.2"/>
<feComposite in2="hardAlpha" operator="out"/>
<feColorMatrix type="matrix" values="0 0 0 0 0 0 0 0 0 0 0 0 0 0 0 0 0 0 0.05 0"/>
<feBlend mode="normal" in2="BackgroundImageFix" result="effect1_dropShadow_0_1"/>
<feBlend mode="normal" in="SourceGraphic" in2="effect1_dropShadow_0_1" result="shape"/>
</filter>
<filter id="filter1_d_0_1" x="546.6" y="609.6" width="138.8" height="115.8" filterUnits="userSpaceOnUse" color-interpolation-filters="sRGB">
<feFlood flood-opacity="0" result="BackgroundImageFix"/>
<feColorMatrix in="SourceAlpha" type="matrix" values="0 0 0 0 0 0 0 0 0 0 0 0 0 0 0 0 0 0 127 0" result="hardAlpha"/>
<feOffset dx="4" dy="4"/>
<feGaussianBlur stdDeviation="10.2"/>
<feComposite in2="hardAlpha" operator="out"/>
<feColorMatrix type="matrix" values="0 0 0 0 0 0 0 0 0 0 0 0 0 0 0 0 0 0 0.05 0"/>
<feBlend mode="normal" in2="BackgroundImageFix" result="effect1_dropShadow_0_1"/>
<feBlend mode="normal" in="SourceGraphic" in2="effect1_dropShadow_0_1" result="shape"/>
</filter>
<filter id="filter2_d_0_1" x="759.6" y="430.6" width="138.8" height="115.8" filterUnits="userSpaceOnUse" color-interpolation-filters="sRGB">
<feFlood flood-opacity="0" result="BackgroundImageFix"/>
<feColorMatrix in="SourceAlpha" type="matrix" values="0 0 0 0 0 0 0 0 0 0 0 0 0 0 0 0 0 0 127 0" result="hardAlpha"/>
<feOffset dx="4" dy="4"/>
<feGaussianBlur stdDeviation="10.2"/>
<feComposite in2="hardAlpha" operator="out"/>
<feColorMatrix type="matrix" values="0 0 0 0 0 0 0 0 0 0 0 0 0 0 0 0 0 0 0.05 0"/>
<feBlend mode="normal" in2="BackgroundImageFix" result="effect1_dropShadow_0_1"/>
<feBlend mode="normal" in="SourceGraphic" in2="effect1_dropShadow_0_1" result="shape"/>
</filter>
<filter id="filter3_d_0_1" x="10.6" y="565.6" width="138.8" height="115.8" filterUnits="userSpaceOnUse" color-interpolation-filters="sRGB">
<feFlood flood-opacity="0" result="BackgroundImageFix"/>
<feColorMatrix in="SourceAlpha" type="matrix" values="0 0 0 0 0 0 0 0 0 0 0 0 0 0 0 0 0 0 127 0" result="hardAlpha"/>
<feOffset dx="4" dy="4"/>
<feGaussianBlur stdDeviation="10.2"/>
<feComposite in2="hardAlpha" operator="out"/>
<feColorMatrix type="matrix" values="0 0 0 0 0 0 0 0 0 0 0 0 0 0 0 0 0 0 0.05 0"/>
<feBlend mode="normal" in2="BackgroundImageFix" result="effect1_dropShadow_0_1"/>
<feBlend mode="normal" in="SourceGraphic" in2="effect1_dropShadow_0_1" result="shape"/>
</filter>
<filter id="filter4_d_0_1" x="179.6" y="746.6" width="138.8" height="115.8" filterUnits="userSpaceOnUse" color-interpolation-filters="sRGB">
<feFlood flood-opacity="0" result="BackgroundImageFix"/>
<feColorMatrix in="SourceAlpha" type="matrix" values="0 0 0 0 0 0 0 0 0 0 0 0 0 0 0 0 0 0 127 0" result="hardAlpha"/>
<feOffset dx="4" dy="4"/>
<feGaussianBlur stdDeviation="10.2"/>
<feComposite in2="hardAlpha" operator="out"/>
<feColorMatrix type="matrix" values="0 0 0 0 0 0 0 0 0 0 0 0 0 0 0 0 0 0 0.05 0"/>
<feBlend mode="normal" in2="BackgroundImageFix" result="effect1_dropShadow_0_1"/>
<feBlend mode="normal" in="SourceGraphic" in2="effect1_dropShadow_0_1" result="shape"/>
</filter>
</defs>
</svg>
