<svg width="424" height="402" viewBox="0 0 424 402" fill="none" xmlns="http://www.w3.org/2000/svg">
<path d="M80.6069 238.598L413.452 253.282C416.398 253.411 419.111 251.942 420.303 249.574C421.494 247.205 420.921 244.414 418.857 242.529L185.845 29.7127C183.744 27.7937 180.532 27.211 177.787 28.2506C177.194 28.4754 176.649 28.7654 176.161 29.1093C174.392 30.3564 173.374 32.3082 173.509 34.3858L191.809 132.481C194.176 145.17 188.196 157.846 176.388 165.173L76.2077 227.328C73.9396 229 73.0867 231.746 74.0603 234.242C75.0351 236.736 77.6349 238.467 80.6069 238.598Z" fill="#F54387"/>
</svg>
