<svg width="87" height="87" viewBox="0 0 87 87" fill="none" xmlns="http://www.w3.org/2000/svg">
<rect width="87" height="87" rx="8" fill="#F54387"/>
<path d="M62.1153 30.2284L59.5308 28.1249C58.8615 27.5814 58.4092 26.8397 58.2275 26.0174H58.318C58.7719 26.0174 59.1403 25.6498 59.1403 25.1951C59.1403 24.7403 58.7719 24.3728 58.318 24.3728H30.4016C29.78 24.3728 29.2742 23.867 29.2742 23.2454V19.772C29.2742 19.1503 29.78 18.6446 30.4016 18.6446H58.318C58.9396 18.6446 59.4462 19.1503 59.4462 19.772V23.2454C59.4462 23.7001 59.8145 24.0677 60.2685 24.0677C60.7224 24.0677 61.0908 23.7001 61.0908 23.2454V19.772C61.0908 18.2441 59.8466 17 58.318 17H30.4016C28.873 17 27.6296 18.2441 27.6296 19.772V23.2454C27.6296 24.7732 28.873 26.0174 30.4016 26.0174H38.9034H56.5541C56.7548 27.3396 57.4373 28.5435 58.4931 29.4011L61.0776 31.5038C62.3464 32.5366 63.0741 34.0661 63.0741 35.7008V63.516C63.0741 66.4993 60.6475 68.9259 57.6642 68.9259H31.0545C28.072 68.9259 25.6446 66.4993 25.6446 63.516V35.7008C25.6446 34.0661 26.3723 32.5358 27.6412 31.5038L30.2265 29.4011C30.5792 29.115 30.6327 28.5969 30.3457 28.245C30.0595 27.8922 29.5407 27.8388 29.1887 28.1257L26.6034 30.2284C24.9489 31.5745 24 33.5694 24 35.7008V63.516C24 67.4055 27.1642 70.5705 31.0545 70.5705H57.6642C61.5537 70.5705 64.7188 67.4055 64.7188 63.516V35.7008C64.7188 33.5694 63.7698 31.5745 62.1153 30.2284Z" fill="white"/>
<path d="M40.1183 36.0412C34.4608 37.8824 30.6602 43.1204 30.6602 49.078C30.6602 56.63 36.8036 62.7726 44.3556 62.7726C51.9117 62.7726 58.0601 56.6292 58.0601 49.078C58.0601 41.5219 51.9117 35.3735 44.3556 35.3735C43.9017 35.3735 43.5333 35.7411 43.5333 36.1958C43.5333 36.6506 43.9017 37.0181 44.3556 37.0181C51.0056 37.0181 56.4155 42.4281 56.4155 49.078C56.4155 55.7222 51.0056 61.128 44.3556 61.128C37.7106 61.128 32.3048 55.7222 32.3048 49.078C32.3048 43.8358 35.6491 39.226 40.6281 37.6061C41.0598 37.4655 41.2958 37.0017 41.156 36.5692C41.0146 36.1375 40.5516 35.9031 40.1183 36.0412Z" fill="white"/>
<path d="M44.361 41.1082C43.9071 41.1082 43.5387 41.4757 43.5387 41.9305V42.7503C41.9344 43.1244 40.733 44.5561 40.733 46.2697C40.733 48.2704 42.3604 49.8977 44.361 49.8977C45.4514 49.8977 46.3387 50.785 46.3387 51.8754C46.3387 52.9658 45.4514 53.853 44.361 53.853C43.2674 53.853 42.3776 52.9658 42.3776 51.8754C42.3776 51.4206 42.0092 51.0531 41.5553 51.0531C41.1014 51.0531 40.733 51.4206 40.733 51.8754C40.733 53.5891 41.9344 55.0215 43.5387 55.3957V56.2155C43.5387 56.6702 43.9071 57.0378 44.361 57.0378C44.8149 57.0378 45.1833 56.6702 45.1833 56.2155V55.3957C46.7844 55.0207 47.9833 53.5891 47.9833 51.8762C47.9833 49.8788 46.3584 48.254 44.361 48.254C43.2674 48.254 42.3776 47.3642 42.3776 46.2706C42.3776 45.1802 43.2674 44.2938 44.361 44.2938C45.4514 44.2938 46.3387 45.1802 46.3387 46.2706C46.3387 46.7253 46.7071 47.0929 47.161 47.0929C47.6149 47.0929 47.9833 46.7253 47.9833 46.2706C47.9833 44.5577 46.7844 43.1261 45.1833 42.7519V41.9313C45.1833 41.4757 44.8149 41.1082 44.361 41.1082Z" fill="white"/>
</svg>
