<svg width="87" height="87" viewBox="0 0 87 87" fill="none" xmlns="http://www.w3.org/2000/svg">
<rect width="87" height="87" rx="8" fill="#F54387"/>
<path fill-rule="evenodd" clip-rule="evenodd" d="M28.2378 60.802L26.2505 62.7893L28.2378 64.7771C28.5251 65.0649 28.5251 65.5317 28.2378 65.8194C28.0937 65.9632 27.9054 66.0355 27.7168 66.0355C27.5285 66.0355 27.3398 65.9632 27.1957 65.8194L25.2084 63.8317L23.2221 65.8194C22.9338 66.1073 22.4673 66.1073 22.18 65.8194C21.8913 65.5316 21.8913 65.0648 22.18 64.7771L24.1662 62.7893L22.18 60.802C21.8913 60.5142 21.8913 60.0474 22.18 59.7597C22.4673 59.4718 22.9339 59.4718 23.2221 59.7597L25.2083 61.7469L27.1956 59.7597C27.4829 59.4718 27.9504 59.4718 28.2377 59.7597C28.5251 60.0475 28.5251 60.5142 28.2378 60.802ZM63.2245 18H62.3589C58.5847 18.2247 55.5833 21.3668 55.5833 25.1968C55.5833 29.1728 58.8167 32.4075 62.7917 32.4075C66.7661 32.4075 70 29.1728 70 25.1968C70.0001 21.3667 66.9982 18.2247 63.2245 18ZM25.2083 68.526C28.3704 68.526 30.9432 65.9526 30.9432 62.7893C30.9432 59.6264 28.3705 57.0531 25.2083 57.0531C22.0462 57.0531 19.4736 59.6264 19.4736 62.7893C19.4736 65.9527 22.0463 68.526 25.2083 68.526ZM25.2083 55.5791C21.2335 55.5791 18 58.8138 18 62.7893C18 66.7653 21.2335 70 25.2083 70C29.1833 70 32.4168 66.7653 32.4168 62.7893C32.4168 58.8138 29.1834 55.5791 25.2083 55.5791ZM65.2233 34.4587C66.576 37.4645 67.261 40.6726 67.261 43.9931C67.261 50.2079 64.8409 56.0507 60.4475 60.4453C56.0549 64.8399 50.2136 67.2597 44.0004 67.2597C41.4093 67.2597 38.8823 66.8405 36.4646 66.0117L37.8327 68.3815C38.0357 68.7338 37.9149 69.1846 37.5623 69.3883C37.4464 69.4551 37.32 69.4868 37.1947 69.4868C36.94 69.4868 36.6925 69.355 36.5557 69.1182L34.1316 64.9188C34.0335 64.7494 34.0073 64.5482 34.0578 64.3594C34.1083 64.1701 34.2327 64.0096 34.4011 63.912L38.5999 61.4868C38.9526 61.2832 39.4033 61.4041 39.6074 61.7569C39.8105 62.1092 39.6896 62.5601 39.337 62.7637L36.4379 64.4378C38.8536 65.3331 41.3931 65.786 44.0005 65.786C56.014 65.786 65.7876 56.0098 65.7876 43.9933C65.7876 40.8829 65.1457 37.878 63.8792 35.0634C63.7127 34.6923 63.8782 34.2558 64.2497 34.0888C64.6199 33.9216 65.0568 34.0871 65.2233 34.4587ZM22.7769 53.5279C22.8997 53.8015 23.1686 53.963 23.4495 53.963C23.5505 53.963 23.6525 53.9423 23.7506 53.8981C24.1221 53.7312 24.2876 53.2947 24.1212 52.9236C22.8546 50.109 22.2127 47.1041 22.2127 43.9932C22.2127 31.9771 31.9863 22.201 44.0004 22.201C46.6072 22.201 49.1463 22.6538 51.5624 23.5491L48.6633 25.2232C48.3106 25.4269 48.1893 25.8777 48.3939 26.23C48.5969 26.5827 49.0472 26.7032 49.4003 26.4996L53.5991 24.0748C53.9508 23.8717 54.0717 23.4209 53.8686 23.068L51.444 18.8681C51.2409 18.5159 50.7896 18.3949 50.438 18.5986C50.0853 18.8022 49.9645 19.2531 50.1675 19.6053L51.5361 21.975C49.1179 21.1462 46.5903 20.7265 44.0003 20.7265C37.7875 20.7265 31.9452 23.1467 27.5527 27.5413C23.1586 31.9359 20.7385 37.7787 20.7385 43.9932C20.7386 47.314 21.4252 50.522 22.7769 53.5279ZM44.0003 38.1082C40.7559 38.1082 38.1169 40.7484 38.1169 43.9931C38.1169 47.2382 40.7559 49.8785 44.0003 49.8785C47.2441 49.8785 49.8831 47.2382 49.8831 43.9931C49.8832 40.7484 47.2442 38.1082 44.0003 38.1082ZM44.0003 51.3524C48.0569 51.3524 51.3567 48.0507 51.3567 43.9931C51.3567 39.9354 48.0569 36.6342 44.0003 36.6342C39.9431 36.6342 36.6433 39.9354 36.6433 43.9931C36.6433 48.0507 39.9431 51.3524 44.0003 51.3524ZM33.8041 52.0049C34.9062 50.9025 35.2198 49.3211 34.6219 47.8784C34.0251 46.4361 32.6852 45.5399 31.1264 45.5399C31.0338 45.5399 30.958 45.4641 30.958 45.3714V42.6152C30.958 42.5226 31.0338 42.4468 31.1264 42.4468C32.6853 42.4468 34.0251 41.5505 34.6219 40.1077C35.2198 38.6655 34.9062 37.084 33.8041 35.9816C33.7378 35.9157 33.7378 35.8092 33.8041 35.7433L35.7528 33.7942C35.8176 33.7288 35.9252 33.7288 35.9906 33.7942C37.0927 34.8971 38.6737 35.2107 40.1156 34.6131C41.5579 34.0156 42.4541 32.6755 42.4541 31.1162C42.4541 31.0236 42.5293 30.9478 42.6225 30.9478H45.378C45.4706 30.9478 45.5464 31.0236 45.5464 31.1162C45.5464 32.6754 46.4424 34.0156 47.8843 34.6131C49.3266 35.2107 50.9076 34.897 52.0098 33.7942C52.0756 33.7288 52.1822 33.7288 52.2475 33.7942L54.1962 35.7433C54.2625 35.8092 54.2625 35.9158 54.1962 35.9816C53.0941 37.084 52.7801 38.6655 53.378 40.1077C53.9748 41.5505 55.3151 42.4468 56.8739 42.4468C56.9665 42.4468 57.0423 42.5226 57.0423 42.6152V45.3714C57.0423 45.4641 56.9665 45.5399 56.8739 45.5399C55.3151 45.5399 53.9748 46.4361 53.378 47.8784C52.7801 49.3212 53.0942 50.9026 54.1972 52.0049C54.2373 52.0456 54.2458 52.0921 54.2458 52.1238C54.2458 52.1555 54.2373 52.2025 54.1962 52.2432L52.2475 54.1922C52.1822 54.2576 52.0756 54.2576 52.0098 54.1922C50.9076 53.0893 49.3266 52.7757 47.8843 53.3733C46.4424 53.9708 45.5464 55.3109 45.5464 56.8701C45.5464 56.9627 45.4706 57.0385 45.378 57.0385H42.6225C42.5293 57.0385 42.4541 56.9627 42.4541 56.8701C42.4541 55.3089 41.559 53.9683 40.1171 53.3713C39.6336 53.1711 39.1349 53.073 38.643 53.073C37.6683 53.073 36.7241 53.4579 35.9906 54.1922C35.9252 54.2576 35.8177 54.2576 35.7528 54.1922L33.8041 52.2432C33.7378 52.1774 33.7378 52.0708 33.8041 52.0049ZM35.8716 55.7154C35.4328 55.7154 35.0196 55.5445 34.7106 55.2348L32.762 53.2857C32.1211 52.6451 32.1211 51.6031 32.762 50.9625C33.5665 50.1584 33.5471 49.1333 33.2608 48.4427C32.975 47.752 32.2642 47.0138 31.1264 47.0138C30.2211 47.0138 29.484 46.2771 29.484 45.3714V42.6152C29.484 41.7095 30.2211 40.9728 31.1264 40.9728C32.2642 40.9728 32.975 40.2346 33.2608 39.5439C33.5471 38.8528 33.5663 37.8282 32.762 37.0236C32.1211 36.3835 32.1211 35.3415 32.762 34.7009L34.7106 32.7518C35.3506 32.1118 36.3927 32.1118 37.0326 32.7518C37.837 33.5565 38.8608 33.5376 39.5513 33.2512C40.2418 32.9648 40.9798 32.2539 40.9798 31.1163C40.9798 30.2106 41.7169 29.4739 42.6224 29.4739H45.3778C46.2833 29.4739 47.0198 30.2106 47.0198 31.1163C47.0198 32.2539 47.7579 32.9648 48.4484 33.2512C49.1393 33.5371 50.1631 33.5563 50.9675 32.7518C51.6075 32.1118 52.6497 32.1118 53.2897 32.7518L55.2378 34.7009C55.5483 35.0116 55.7192 35.4238 55.7192 35.8626C55.7192 36.3011 55.5484 36.7134 55.2378 37.0235C54.4339 37.8281 54.4537 38.8527 54.7389 39.5438C55.0252 40.2344 55.736 40.9727 56.8738 40.9727C57.7792 40.9727 58.5158 41.7094 58.5158 42.6151V45.3713C58.5158 46.277 57.7792 47.0137 56.8738 47.0137C55.736 47.0137 55.0252 47.7519 54.7389 48.4426C54.4537 49.1332 54.4339 50.1583 55.2378 50.9624C55.5483 51.2725 55.7192 51.6853 55.7192 52.1238C55.7192 52.5627 55.5484 52.975 55.2378 53.2857L53.2897 55.2348C52.9801 55.5445 52.5674 55.7154 52.1286 55.7154C51.6908 55.7154 51.2782 55.5445 50.9675 55.2348C50.1631 54.4302 49.1393 54.449 48.4484 54.7354C47.758 55.0213 47.0198 55.7327 47.0198 56.8703C47.0198 57.776 46.2833 58.5127 45.3778 58.5127H42.6224C41.7169 58.5127 40.9798 57.776 40.9798 56.8703C40.9798 55.7307 40.2433 55.0193 39.5528 54.733C38.8624 54.4471 37.838 54.4288 37.0326 55.2349C36.722 55.5444 36.3095 55.7154 35.8716 55.7154ZM66.3214 23.0724C66.5779 23.389 66.5294 23.8527 66.2124 24.1088L61.5034 27.9273C61.3716 28.0343 61.2071 28.0918 61.0392 28.0918C61.003 28.0918 60.9664 28.0888 60.9292 28.0833C60.7251 28.0526 60.5429 27.9372 60.4275 27.7658L58.7904 25.3273C58.564 24.9894 58.6537 24.5316 58.9915 24.3047C59.3292 24.0778 59.7875 24.1675 60.0148 24.5058L61.2021 26.2746L65.285 22.964C65.6012 22.7076 66.0653 22.7563 66.3214 23.0724ZM62.7917 30.9331C59.6296 30.9331 57.0569 28.3603 57.0569 25.1969C57.0569 22.034 59.6296 19.4607 62.7917 19.4607C65.9538 19.4607 68.5264 22.034 68.5264 25.1969C68.5265 28.3603 65.9538 30.9331 62.7917 30.9331Z" fill="white"/>
</svg>
