<svg width="87" height="87" viewBox="0 0 87 87" fill="none" xmlns="http://www.w3.org/2000/svg">
<rect width="87" height="87" rx="8" fill="#F54387"/>
<path d="M35 34C35.2652 34 35.5196 33.8946 35.7071 33.7071C35.8946 33.5196 36 33.2652 36 33C36 32.7348 35.8946 32.4804 35.7071 32.2929C35.5196 32.1054 35.2652 32 35 32C34.2044 32 33.4413 32.3161 32.8787 32.8787C32.3161 33.4413 32 34.2044 32 35V53C32 53.7956 32.3161 54.5587 32.8787 55.1213C33.4413 55.6839 34.2044 56 35 56H53C53.7956 56 54.5587 55.6839 55.1213 55.1213C55.6839 54.5587 56 53.7956 56 53V35C56 34.2044 55.6839 33.4413 55.1213 32.8787C54.5587 32.3161 53.7956 32 53 32H41C40.7348 32 40.4804 32.1054 40.2929 32.2929C40.1054 32.4804 40 32.7348 40 33C40 33.2652 40.1054 33.5196 40.2929 33.7071C40.4804 33.8946 40.7348 34 41 34H53C53.2652 34 53.5196 34.1054 53.7071 34.2929C53.8946 34.4804 54 34.7348 54 35V53C54 53.2652 53.8946 53.5196 53.7071 53.7071C53.5196 53.8946 53.2652 54 53 54H35C34.7348 54 34.4804 53.8946 34.2929 53.7071C34.1054 53.5196 34 53.2652 34 53V35C34 34.7348 34.1054 34.4804 34.2929 34.2929C34.4804 34.1054 34.7348 34 35 34Z" fill="white"/>
<path d="M72 33C72.2652 33 72.5196 32.8946 72.7071 32.7071C72.8946 32.5196 73 32.2652 73 32C73 31.7348 72.8946 31.4804 72.7071 31.2929C72.5196 31.1054 72.2652 31 72 31H64C64 29.1435 63.2625 27.363 61.9497 26.0503C60.637 24.7375 58.8565 24 57 24V16C57 15.7348 56.8946 15.4804 56.7071 15.2929C56.5196 15.1054 56.2652 15 56 15C55.7348 15 55.4804 15.1054 55.2929 15.2929C55.1054 15.4804 55 15.7348 55 16V24H49V16C49 15.7348 48.8946 15.4804 48.7071 15.2929C48.5196 15.1054 48.2652 15 48 15C47.7348 15 47.4804 15.1054 47.2929 15.2929C47.1054 15.4804 47 15.7348 47 16V24H41V16C41 15.7348 40.8946 15.4804 40.7071 15.2929C40.5196 15.1054 40.2652 15 40 15C39.7348 15 39.4804 15.1054 39.2929 15.2929C39.1054 15.4804 39 15.7348 39 16V24H33V16C33 15.7348 32.8946 15.4804 32.7071 15.2929C32.5196 15.1054 32.2652 15 32 15C31.7348 15 31.4804 15.1054 31.2929 15.2929C31.1054 15.4804 31 15.7348 31 16V24C29.1435 24 27.363 24.7375 26.0503 26.0503C24.7375 27.363 24 29.1435 24 31H16C15.7348 31 15.4804 31.1054 15.2929 31.2929C15.1054 31.4804 15 31.7348 15 32C15 32.2652 15.1054 32.5196 15.2929 32.7071C15.4804 32.8946 15.7348 33 16 33H25C25.2652 33 25.5196 32.8946 25.7071 32.7071C25.8946 32.5196 26 32.2652 26 32V31C26 29.6739 26.5268 28.4021 27.4645 27.4645C28.4021 26.5268 29.6739 26 31 26H57C58.3261 26 59.5979 26.5268 60.5355 27.4645C61.4732 28.4021 62 29.6739 62 31V57C62 58.3261 61.4732 59.5979 60.5355 60.5355C59.5979 61.4732 58.3261 62 57 62H56C55.7348 62 55.4804 62.1054 55.2929 62.2929C55.1054 62.4804 55 62.7348 55 63V72C55 72.2652 55.1054 72.5196 55.2929 72.7071C55.4804 72.8946 55.7348 73 56 73C56.2652 73 56.5196 72.8946 56.7071 72.7071C56.8946 72.5196 57 72.2652 57 72V64C58.8565 64 60.637 63.2625 61.9497 61.9497C63.2625 60.637 64 58.8565 64 57H72C72.2652 57 72.5196 56.8946 72.7071 56.7071C72.8946 56.5196 73 56.2652 73 56C73 55.7348 72.8946 55.4804 72.7071 55.2929C72.5196 55.1054 72.2652 55 72 55H64V49H72C72.2652 49 72.5196 48.8946 72.7071 48.7071C72.8946 48.5196 73 48.2652 73 48C73 47.7348 72.8946 47.4804 72.7071 47.2929C72.5196 47.1054 72.2652 47 72 47H64V41H72C72.2652 41 72.5196 40.8946 72.7071 40.7071C72.8946 40.5196 73 40.2652 73 40C73 39.7348 72.8946 39.4804 72.7071 39.2929C72.5196 39.1054 72.2652 39 72 39H64V33H72Z" fill="white"/>
<path d="M16 55C15.7348 55 15.4804 55.1054 15.2929 55.2929C15.1054 55.4804 15 55.7348 15 56C15 56.2652 15.1054 56.5196 15.2929 56.7071C15.4804 56.8946 15.7348 57 16 57H24C24 58.8565 24.7375 60.637 26.0503 61.9497C27.363 63.2625 29.1435 64 31 64V72C31 72.2652 31.1054 72.5196 31.2929 72.7071C31.4804 72.8946 31.7348 73 32 73C32.2652 73 32.5196 72.8946 32.7071 72.7071C32.8946 72.5196 33 72.2652 33 72V64H39V72C39 72.2652 39.1054 72.5196 39.2929 72.7071C39.4804 72.8946 39.7348 73 40 73C40.2652 73 40.5196 72.8946 40.7071 72.7071C40.8946 72.5196 41 72.2652 41 72V64H47V72C47 72.2652 47.1054 72.5196 47.2929 72.7071C47.4804 72.8946 47.7348 73 48 73C48.2652 73 48.5196 72.8946 48.7071 72.7071C48.8946 72.5196 49 72.2652 49 72V64H50C50.2652 64 50.5196 63.8946 50.7071 63.7071C50.8946 63.5196 51 63.2652 51 63C51 62.7348 50.8946 62.4804 50.7071 62.2929C50.5196 62.1054 50.2652 62 50 62H31C29.6739 62 28.4021 61.4732 27.4645 60.5355C26.5268 59.5979 26 58.3261 26 57V38C26 37.7348 25.8946 37.4804 25.7071 37.2929C25.5196 37.1054 25.2652 37 25 37C24.7348 37 24.4804 37.1054 24.2929 37.2929C24.1054 37.4804 24 37.7348 24 38V39H16C15.7348 39 15.4804 39.1054 15.2929 39.2929C15.1054 39.4804 15 39.7348 15 40C15 40.2652 15.1054 40.5196 15.2929 40.7071C15.4804 40.8946 15.7348 41 16 41H24V47H16C15.7348 47 15.4804 47.1054 15.2929 47.2929C15.1054 47.4804 15 47.7348 15 48C15 48.2652 15.1054 48.5196 15.2929 48.7071C15.4804 48.8946 15.7348 49 16 49H24V55H16Z" fill="white"/>
</svg>
